<svg id="visual" viewBox="0 0 900 600" width="900" height="600" xmlns="http://www.w3.org/2000/svg" xmlns:xlink="http://www.w3.org/1999/xlink" version="1.1"><path d="M0 55L21.5 50C43 45 86 35 128.8 36C171.7 37 214.3 49 257.2 49C300 49 343 37 385.8 33C428.7 29 471.3 33 514.2 31C557 29 600 21 642.8 17C685.7 13 728.3 13 771.2 16C814 19 857 25 878.5 28L900 31L900 0L878.5 0C857 0 814 0 771.2 0C728.3 0 685.7 0 642.8 0C600 0 557 0 514.2 0C471.3 0 428.7 0 385.8 0C343 0 300 0 257.2 0C214.3 0 171.7 0 128.8 0C86 0 43 0 21.5 0L0 0Z" fill="#183664"></path><path d="M0 91L21.5 98C43 105 86 119 128.8 122C171.7 125 214.3 117 257.2 118C300 119 343 129 385.8 126C428.7 123 471.3 107 514.2 100C557 93 600 95 642.8 88C685.7 81 728.3 65 771.2 61C814 57 857 65 878.5 69L900 73L900 29L878.5 26C857 23 814 17 771.2 14C728.3 11 685.7 11 642.8 15C600 19 557 27 514.2 29C471.3 31 428.7 27 385.8 31C343 35 300 47 257.2 47C214.3 47 171.7 35 128.8 34C86 33 43 43 21.5 48L0 53Z" fill="#172f57"></path><path d="M0 145L21.5 149C43 153 86 161 128.8 160C171.7 159 214.3 149 257.2 155C300 161 343 183 385.8 186C428.7 189 471.3 173 514.2 161C557 149 600 141 642.8 126C685.7 111 728.3 89 771.2 86C814 83 857 99 878.5 107L900 115L900 71L878.5 67C857 63 814 55 771.2 59C728.3 63 685.7 79 642.8 86C600 93 557 91 514.2 98C471.3 105 428.7 121 385.8 124C343 127 300 117 257.2 116C214.3 115 171.7 123 128.8 120C86 117 43 103 21.5 96L0 89Z" fill="#15294a"></path><path d="M0 175L21.5 189C43 203 86 231 128.8 235C171.7 239 214.3 219 257.2 213C300 207 343 215 385.8 215C428.7 215 471.3 207 514.2 199C557 191 600 183 642.8 170C685.7 157 728.3 139 771.2 140C814 141 857 161 878.5 171L900 181L900 113L878.5 105C857 97 814 81 771.2 84C728.3 87 685.7 109 642.8 124C600 139 557 147 514.2 159C471.3 171 428.7 187 385.8 184C343 181 300 159 257.2 153C214.3 147 171.7 157 128.8 158C86 159 43 151 21.5 147L0 143Z" fill="#13223d"></path><path d="M0 313L21.5 312C43 311 86 309 128.8 301C171.7 293 214.3 279 257.2 275C300 271 343 277 385.8 272C428.7 267 471.3 251 514.2 255C557 259 600 283 642.8 273C685.7 263 728.3 219 771.2 218C814 217 857 259 878.5 280L900 301L900 179L878.5 169C857 159 814 139 771.2 138C728.3 137 685.7 155 642.8 168C600 181 557 189 514.2 197C471.3 205 428.7 213 385.8 213C343 213 300 205 257.2 211C214.3 217 171.7 237 128.8 233C86 229 43 201 21.5 187L0 173Z" fill="#111c31"></path><path d="M0 463L21.5 470C43 477 86 491 128.8 496C171.7 501 214.3 497 257.2 482C300 467 343 441 385.8 437C428.7 433 471.3 451 514.2 453C557 455 600 441 642.8 412C685.7 383 728.3 339 771.2 334C814 329 857 363 878.5 380L900 397L900 299L878.5 278C857 257 814 215 771.2 216C728.3 217 685.7 261 642.8 271C600 281 557 257 514.2 253C471.3 249 428.7 265 385.8 270C343 275 300 269 257.2 273C214.3 277 171.7 291 128.8 299C86 307 43 309 21.5 310L0 311Z" fill="#0f1625"></path><path d="M0 505L21.5 508C43 511 86 517 128.8 520C171.7 523 214.3 523 257.2 512C300 501 343 479 385.8 480C428.7 481 471.3 505 514.2 512C557 519 600 509 642.8 478C685.7 447 728.3 395 771.2 389C814 383 857 423 878.5 443L900 463L900 395L878.5 378C857 361 814 327 771.2 332C728.3 337 685.7 381 642.8 410C600 439 557 453 514.2 451C471.3 449 428.7 431 385.8 435C343 439 300 465 257.2 480C214.3 495 171.7 499 128.8 494C86 489 43 475 21.5 468L0 461Z" fill="#0a0e1a"></path><path d="M0 601L21.5 601C43 601 86 601 128.8 601C171.7 601 214.3 601 257.2 601C300 601 343 601 385.8 601C428.7 601 471.3 601 514.2 601C557 601 600 601 642.8 601C685.7 601 728.3 601 771.2 601C814 601 857 601 878.5 601L900 601L900 461L878.5 441C857 421 814 381 771.2 387C728.3 393 685.7 445 642.8 476C600 507 557 517 514.2 510C471.3 503 428.7 479 385.8 478C343 477 300 499 257.2 510C214.3 521 171.7 521 128.8 518C86 515 43 509 21.5 506L0 503Z" fill="#01040e"></path></svg>