<svg id="visual" viewBox="0 0 960 540" width="960" height="540" xmlns="http://www.w3.org/2000/svg" xmlns:xlink="http://www.w3.org/1999/xlink" version="1.1"><path d="M0 114L26.7 107.8C53.3 101.7 106.7 89.3 160 82.2C213.3 75 266.7 73 320 84.7C373.3 96.3 426.7 121.7 480 123.5C533.3 125.3 586.7 103.7 640 93.7C693.3 83.7 746.7 85.3 800 86.2C853.3 87 906.7 87 933.3 87L960 87L960 0L933.3 0C906.7 0 853.3 0 800 0C746.7 0 693.3 0 640 0C586.7 0 533.3 0 480 0C426.7 0 373.3 0 320 0C266.7 0 213.3 0 160 0C106.7 0 53.3 0 26.7 0L0 0Z" fill="#071324"></path><path d="M0 260L26.7 252C53.3 244 106.7 228 160 229C213.3 230 266.7 248 320 272.2C373.3 296.3 426.7 326.7 480 308.7C533.3 290.7 586.7 224.3 640 214.5C693.3 204.7 746.7 251.3 800 254.8C853.3 258.3 906.7 218.7 933.3 198.8L960 179L960 85L933.3 85C906.7 85 853.3 85 800 84.2C746.7 83.3 693.3 81.7 640 91.7C586.7 101.7 533.3 123.3 480 121.5C426.7 119.7 373.3 94.3 320 82.7C266.7 71 213.3 73 160 80.2C106.7 87.3 53.3 99.7 26.7 105.8L0 112Z" fill="#081529"></path><path d="M0 336L26.7 328.8C53.3 321.7 106.7 307.3 160 307.3C213.3 307.3 266.7 321.7 320 339.7C373.3 357.7 426.7 379.3 480 355.8C533.3 332.3 586.7 263.7 640 255.5C693.3 247.3 746.7 299.7 800 305.2C853.3 310.7 906.7 269.3 933.3 248.7L960 228L960 177L933.3 196.8C906.7 216.7 853.3 256.3 800 252.8C746.7 249.3 693.3 202.7 640 212.5C586.7 222.3 533.3 288.7 480 306.7C426.7 324.7 373.3 294.3 320 270.2C266.7 246 213.3 228 160 227C106.7 226 53.3 242 26.7 250L0 258Z" fill="#08172f"></path><path d="M0 460L26.7 467.2C53.3 474.3 106.7 488.7 160 484.2C213.3 479.7 266.7 456.3 320 456.3C373.3 456.3 426.7 479.7 480 478.8C533.3 478 586.7 453 640 452.2C693.3 451.3 746.7 474.7 800 475.5C853.3 476.3 906.7 454.7 933.3 443.8L960 433L960 226L933.3 246.7C906.7 267.3 853.3 308.7 800 303.2C746.7 297.7 693.3 245.3 640 253.5C586.7 261.7 533.3 330.3 480 353.8C426.7 377.3 373.3 355.7 320 337.7C266.7 319.7 213.3 305.3 160 305.3C106.7 305.3 53.3 319.7 26.7 326.8L0 334Z" fill="#102649"></path><path d="M0 541L26.7 541C53.3 541 106.7 541 160 541C213.3 541 266.7 541 320 541C373.3 541 426.7 541 480 541C533.3 541 586.7 541 640 541C693.3 541 746.7 541 800 541C853.3 541 906.7 541 933.3 541L960 541L960 431L933.3 441.8C906.7 452.7 853.3 474.3 800 473.5C746.7 472.7 693.3 449.3 640 450.2C586.7 451 533.3 476 480 476.8C426.7 477.7 373.3 454.3 320 454.3C266.7 454.3 213.3 477.7 160 482.2C106.7 486.7 53.3 472.3 26.7 465.2L0 458Z" fill="#183664"></path></svg>