<svg id="visual" viewBox="0 0 900 600" width="900" height="600" xmlns="http://www.w3.org/2000/svg" xmlns:xlink="http://www.w3.org/1999/xlink" version="1.1"><path d="M0 73L13.7 82C27.3 91 54.7 109 82 110C109.3 111 136.7 95 163.8 93C191 91 218 103 245.2 107C272.3 111 299.7 107 327 98C354.3 89 381.7 75 409 77C436.3 79 463.7 97 491 104C518.3 111 545.7 107 573 107C600.3 107 627.7 111 654.8 105C682 99 709 83 736.2 83C763.3 83 790.7 99 818 108C845.3 117 872.7 119 886.3 120L900 121L900 0L886.3 0C872.7 0 845.3 0 818 0C790.7 0 763.3 0 736.2 0C709 0 682 0 654.8 0C627.7 0 600.3 0 573 0C545.7 0 518.3 0 491 0C463.7 0 436.3 0 409 0C381.7 0 354.3 0 327 0C299.7 0 272.3 0 245.2 0C218 0 191 0 163.8 0C136.7 0 109.3 0 82 0C54.7 0 27.3 0 13.7 0L0 0Z" fill="#000000"></path><path d="M0 139L13.7 143C27.3 147 54.7 155 82 156C109.3 157 136.7 151 163.8 158C191 165 218 185 245.2 193C272.3 201 299.7 197 327 180C354.3 163 381.7 133 409 135C436.3 137 463.7 171 491 185C518.3 199 545.7 193 573 192C600.3 191 627.7 195 654.8 192C682 189 709 179 736.2 177C763.3 175 790.7 181 818 188C845.3 195 872.7 203 886.3 207L900 211L900 119L886.3 118C872.7 117 845.3 115 818 106C790.7 97 763.3 81 736.2 81C709 81 682 97 654.8 103C627.7 109 600.3 105 573 105C545.7 105 518.3 109 491 102C463.7 95 436.3 77 409 75C381.7 73 354.3 87 327 96C299.7 105 272.3 109 245.2 105C218 101 191 89 163.8 91C136.7 93 109.3 109 82 108C54.7 107 27.3 89 13.7 80L0 71Z" fill="#070512"></path><path d="M0 211L13.7 240C27.3 269 54.7 327 82 330C109.3 333 136.7 281 163.8 275C191 269 218 309 245.2 339C272.3 369 299.7 389 327 369C354.3 349 381.7 289 409 284C436.3 279 463.7 329 491 337C518.3 345 545.7 311 573 316C600.3 321 627.7 365 654.8 371C682 377 709 345 736.2 349C763.3 353 790.7 393 818 397C845.3 401 872.7 369 886.3 353L900 337L900 209L886.3 205C872.7 201 845.3 193 818 186C790.7 179 763.3 173 736.2 175C709 177 682 187 654.8 190C627.7 193 600.3 189 573 190C545.7 191 518.3 197 491 183C463.7 169 436.3 135 409 133C381.7 131 354.3 161 327 178C299.7 195 272.3 199 245.2 191C218 183 191 163 163.8 156C136.7 149 109.3 155 82 154C54.7 153 27.3 145 13.7 141L0 137Z" fill="#0d0c16"></path><path d="M0 367L13.7 380C27.3 393 54.7 419 82 419C109.3 419 136.7 393 163.8 395C191 397 218 427 245.2 447C272.3 467 299.7 477 327 465C354.3 453 381.7 419 409 410C436.3 401 463.7 417 491 420C518.3 423 545.7 413 573 427C600.3 441 627.7 479 654.8 482C682 485 709 453 736.2 448C763.3 443 790.7 465 818 473C845.3 481 872.7 475 886.3 472L900 469L900 335L886.3 351C872.7 367 845.3 399 818 395C790.7 391 763.3 351 736.2 347C709 343 682 375 654.8 369C627.7 363 600.3 319 573 314C545.7 309 518.3 343 491 335C463.7 327 436.3 277 409 282C381.7 287 354.3 347 327 367C299.7 387 272.3 367 245.2 337C218 307 191 267 163.8 273C136.7 279 109.3 331 82 328C54.7 325 27.3 267 13.7 238L0 209Z" fill="#121219"></path><path d="M0 601L13.7 601C27.3 601 54.7 601 82 601C109.3 601 136.7 601 163.8 601C191 601 218 601 245.2 601C272.3 601 299.7 601 327 601C354.3 601 381.7 601 409 601C436.3 601 463.7 601 491 601C518.3 601 545.7 601 573 601C600.3 601 627.7 601 654.8 601C682 601 709 601 736.2 601C763.3 601 790.7 601 818 601C845.3 601 872.7 601 886.3 601L900 601L900 467L886.3 470C872.7 473 845.3 479 818 471C790.7 463 763.3 441 736.2 446C709 451 682 483 654.8 480C627.7 477 600.3 439 573 425C545.7 411 518.3 421 491 418C463.7 415 436.3 399 409 408C381.7 417 354.3 451 327 463C299.7 475 272.3 465 245.2 445C218 425 191 395 163.8 393C136.7 391 109.3 417 82 417C54.7 417 27.3 391 13.7 378L0 365Z" fill="#16161d"></path></svg>