<svg id="visual" viewBox="0 0 900 450" width="900" height="450" xmlns="http://www.w3.org/2000/svg" xmlns:xlink="http://www.w3.org/1999/xlink" version="1.1"><path d="M0 91L15 83.5C30 76 60 61 90 54.3C120 47.7 150 49.3 180 51.7C210 54 240 57 270 62.2C300 67.3 330 74.7 360 69.3C390 64 420 46 450 46.8C480 47.7 510 67.3 540 71.2C570 75 600 63 630 54C660 45 690 39 720 48.7C750 58.3 780 83.7 810 88.8C840 94 870 79 885 71.5L900 64L900 0L885 0C870 0 840 0 810 0C780 0 750 0 720 0C690 0 660 0 630 0C600 0 570 0 540 0C510 0 480 0 450 0C420 0 390 0 360 0C330 0 300 0 270 0C240 0 210 0 180 0C150 0 120 0 90 0C60 0 30 0 15 0L0 0Z" fill="#000000"></path><path d="M0 213L15 221.2C30 229.3 60 245.7 90 232.2C120 218.7 150 175.3 180 155.2C210 135 240 138 270 155.2C300 172.3 330 203.7 360 196.8C390 190 420 145 450 140.5C480 136 510 172 540 183.3C570 194.7 600 181.3 630 172.3C660 163.3 690 158.7 720 169.8C750 181 780 208 810 214.8C840 221.7 870 208.3 885 201.7L900 195L900 62L885 69.5C870 77 840 92 810 86.8C780 81.7 750 56.3 720 46.7C690 37 660 43 630 52C600 61 570 73 540 69.2C510 65.3 480 45.7 450 44.8C420 44 390 62 360 67.3C330 72.7 300 65.3 270 60.2C240 55 210 52 180 49.7C150 47.3 120 45.7 90 52.3C60 59 30 74 15 81.5L0 89Z" fill="#050412"></path><path d="M0 271L15 276.3C30 281.7 60 292.3 90 280.3C120 268.3 150 233.7 180 214.8C210 196 240 193 270 211C300 229 330 268 360 265C390 262 420 217 450 205C480 193 510 214 540 219.3C570 224.7 600 214.3 630 212.2C660 210 690 216 720 228.7C750 241.3 780 260.7 810 264.3C840 268 870 256 885 250L900 244L900 193L885 199.7C870 206.3 840 219.7 810 212.8C780 206 750 179 720 167.8C690 156.7 660 161.3 630 170.3C600 179.3 570 192.7 540 181.3C510 170 480 134 450 138.5C420 143 390 188 360 194.8C330 201.7 300 170.3 270 153.2C240 136 210 133 180 153.2C150 173.3 120 216.7 90 230.2C60 243.7 30 227.3 15 219.2L0 211Z" fill="#0b0915"></path><path d="M0 339L15 336C30 333 60 327 90 317.2C120 307.3 150 293.7 180 281.7C210 269.7 240 259.3 270 274.3C300 289.3 330 329.7 360 325.2C390 320.7 420 271.3 450 260.8C480 250.3 510 278.7 540 283.2C570 287.7 600 268.3 630 259.3C660 250.3 690 251.7 720 260.7C750 269.7 780 286.3 810 296.8C840 307.3 870 311.7 885 313.8L900 316L900 242L885 248C870 254 840 266 810 262.3C780 258.7 750 239.3 720 226.7C690 214 660 208 630 210.2C600 212.3 570 222.7 540 217.3C510 212 480 191 450 203C420 215 390 260 360 263C330 266 300 227 270 209C240 191 210 194 180 212.8C150 231.7 120 266.3 90 278.3C60 290.3 30 279.7 15 274.3L0 269Z" fill="#0f0e18"></path><path d="M0 361L15 362.5C30 364 60 367 90 356.5C120 346 150 322 180 313C210 304 240 310 270 329.5C300 349 330 382 360 376.8C390 371.7 420 328.3 450 320.2C480 312 510 339 540 342C570 345 600 324 630 311.2C660 298.3 690 293.7 720 303.3C750 313 780 337 810 350.5C840 364 870 367 885 368.5L900 370L900 314L885 311.8C870 309.7 840 305.3 810 294.8C780 284.3 750 267.7 720 258.7C690 249.7 660 248.3 630 257.3C600 266.3 570 285.7 540 281.2C510 276.7 480 248.3 450 258.8C420 269.3 390 318.7 360 323.2C330 327.7 300 287.3 270 272.3C240 257.3 210 267.7 180 279.7C150 291.7 120 305.3 90 315.2C60 325 30 331 15 334L0 337Z" fill="#13131b"></path><path d="M0 451L15 451C30 451 60 451 90 451C120 451 150 451 180 451C210 451 240 451 270 451C300 451 330 451 360 451C390 451 420 451 450 451C480 451 510 451 540 451C570 451 600 451 630 451C660 451 690 451 720 451C750 451 780 451 810 451C840 451 870 451 885 451L900 451L900 368L885 366.5C870 365 840 362 810 348.5C780 335 750 311 720 301.3C690 291.7 660 296.3 630 309.2C600 322 570 343 540 340C510 337 480 310 450 318.2C420 326.3 390 369.7 360 374.8C330 380 300 347 270 327.5C240 308 210 302 180 311C150 320 120 344 90 354.5C60 365 30 362 15 360.5L0 359Z" fill="#16161e"></path></svg>