<svg id="visual" viewBox="0 0 960 200" width="960" height="200" xmlns="http://www.w3.org/2000/svg" xmlns:xlink="http://www.w3.org/1999/xlink" version="1.1"><rect x="0" y="0" width="960" height="200" fill="#08172f"></rect><path d="M0 129L16 133.8C32 138.7 64 148.3 96 150.2C128 152 160 146 192 142.7C224 139.3 256 138.7 288 138.8C320 139 352 140 384 144C416 148 448 155 480 155C512 155 544 148 576 145.2C608 142.3 640 143.7 672 148.3C704 153 736 161 768 164.2C800 167.3 832 165.7 864 161.7C896 157.7 928 151.3 944 148.2L960 145L960 0L944 0C928 0 896 0 864 0C832 0 800 0 768 0C736 0 704 0 672 0C640 0 608 0 576 0C544 0 512 0 480 0C448 0 416 0 384 0C352 0 320 0 288 0C256 0 224 0 192 0C160 0 128 0 96 0C64 0 32 0 16 0L0 0Z" fill="#11324c"></path><path d="M0 97L16 101C32 105 64 113 96 112.3C128 111.7 160 102.3 192 103.7C224 105 256 117 288 119.7C320 122.3 352 115.7 384 113.8C416 112 448 115 480 116.7C512 118.3 544 118.7 576 114.8C608 111 640 103 672 105.2C704 107.3 736 119.7 768 122.8C800 126 832 120 864 117.3C896 114.7 928 115.3 944 115.7L960 116L960 0L944 0C928 0 896 0 864 0C832 0 800 0 768 0C736 0 704 0 672 0C640 0 608 0 576 0C544 0 512 0 480 0C448 0 416 0 384 0C352 0 320 0 288 0C256 0 224 0 192 0C160 0 128 0 96 0C64 0 32 0 16 0L0 0Z" fill="#04243d"></path><path d="M0 92L16 86.8C32 81.7 64 71.3 96 71.5C128 71.7 160 82.3 192 82.3C224 82.3 256 71.7 288 72C320 72.3 352 83.7 384 84.2C416 84.7 448 74.3 480 74.3C512 74.3 544 84.7 576 88.3C608 92 640 89 672 89C704 89 736 92 768 91.3C800 90.7 832 86.3 864 80.2C896 74 928 66 944 62L960 58L960 0L944 0C928 0 896 0 864 0C832 0 800 0 768 0C736 0 704 0 672 0C640 0 608 0 576 0C544 0 512 0 480 0C448 0 416 0 384 0C352 0 320 0 288 0C256 0 224 0 192 0C160 0 128 0 96 0C64 0 32 0 16 0L0 0Z" fill="#00162e"></path><path d="M0 32L16 32.3C32 32.7 64 33.3 96 31.7C128 30 160 26 192 25.2C224 24.3 256 26.7 288 32.5C320 38.3 352 47.7 384 49C416 50.3 448 43.7 480 40.5C512 37.3 544 37.7 576 35.3C608 33 640 28 672 31.3C704 34.7 736 46.3 768 51.2C800 56 832 54 864 48.8C896 43.7 928 35.3 944 31.2L960 27L960 0L944 0C928 0 896 0 864 0C832 0 800 0 768 0C736 0 704 0 672 0C640 0 608 0 576 0C544 0 512 0 480 0C448 0 416 0 384 0C352 0 320 0 288 0C256 0 224 0 192 0C160 0 128 0 96 0C64 0 32 0 16 0L0 0Z" fill="#000000"></path></svg>