<svg id="visual" viewBox="0 0 960 540" width="960" height="540" xmlns="http://www.w3.org/2000/svg" xmlns:xlink="http://www.w3.org/1999/xlink" version="1.1"><path d="M0 181L22.8 174.8C45.7 168.7 91.3 156.3 137 150.5C182.7 144.7 228.3 145.3 274 148.2C319.7 151 365.3 156 411.2 159.2C457 162.3 503 163.7 548.8 163.2C594.7 162.7 640.3 160.3 686 163.5C731.7 166.7 777.3 175.3 823 174.2C868.7 173 914.3 162 937.2 156.5L960 151L960 0L937.2 0C914.3 0 868.7 0 823 0C777.3 0 731.7 0 686 0C640.3 0 594.7 0 548.8 0C503 0 457 0 411.2 0C365.3 0 319.7 0 274 0C228.3 0 182.7 0 137 0C91.3 0 45.7 0 22.8 0L0 0Z" fill="#11324c"></path><path d="M0 107L22.8 106.2C45.7 105.3 91.3 103.7 137 107.5C182.7 111.3 228.3 120.7 274 120C319.7 119.3 365.3 108.7 411.2 110.8C457 113 503 128 548.8 130.5C594.7 133 640.3 123 686 120C731.7 117 777.3 121 823 124.5C868.7 128 914.3 131 937.2 132.5L960 134L960 0L937.2 0C914.3 0 868.7 0 823 0C777.3 0 731.7 0 686 0C640.3 0 594.7 0 548.8 0C503 0 457 0 411.2 0C365.3 0 319.7 0 274 0C228.3 0 182.7 0 137 0C91.3 0 45.7 0 22.8 0L0 0Z" fill="#04243d"></path><path d="M0 89L22.8 83.7C45.7 78.3 91.3 67.7 137 66.8C182.7 66 228.3 75 274 77.2C319.7 79.3 365.3 74.7 411.2 75.7C457 76.7 503 83.3 548.8 86.5C594.7 89.7 640.3 89.3 686 91.7C731.7 94 777.3 99 823 96C868.7 93 914.3 82 937.2 76.5L960 71L960 0L937.2 0C914.3 0 868.7 0 823 0C777.3 0 731.7 0 686 0C640.3 0 594.7 0 548.8 0C503 0 457 0 411.2 0C365.3 0 319.7 0 274 0C228.3 0 182.7 0 137 0C91.3 0 45.7 0 22.8 0L0 0Z" fill="#00162e"></path><path d="M0 59L22.8 53C45.7 47 91.3 35 137 35.5C182.7 36 228.3 49 274 52.5C319.7 56 365.3 50 411.2 44.5C457 39 503 34 548.8 32.3C594.7 30.7 640.3 32.3 686 36.8C731.7 41.3 777.3 48.7 823 52C868.7 55.3 914.3 54.7 937.2 54.3L960 54L960 0L937.2 0C914.3 0 868.7 0 823 0C777.3 0 731.7 0 686 0C640.3 0 594.7 0 548.8 0C503 0 457 0 411.2 0C365.3 0 319.7 0 274 0C228.3 0 182.7 0 137 0C91.3 0 45.7 0 22.8 0L0 0Z" fill="#000000"></path></svg>