<svg id="visual" viewBox="0 0 960 540" width="960" height="540" xmlns="http://www.w3.org/2000/svg" xmlns:xlink="http://www.w3.org/1999/xlink" version="1.1"><path d="M0 150L22.8 148.8C45.7 147.7 91.3 145.3 137 146C182.7 146.7 228.3 150.3 274 146.7C319.7 143 365.3 132 411.2 133.2C457 134.3 503 147.7 548.8 155.7C594.7 163.7 640.3 166.3 686 165.3C731.7 164.3 777.3 159.7 823 161.2C868.7 162.7 914.3 170.3 937.2 174.2L960 178L960 0L937.2 0C914.3 0 868.7 0 823 0C777.3 0 731.7 0 686 0C640.3 0 594.7 0 548.8 0C503 0 457 0 411.2 0C365.3 0 319.7 0 274 0C228.3 0 182.7 0 137 0C91.3 0 45.7 0 22.8 0L0 0Z" fill="#ffffff"></path><path d="M0 121L22.8 122.2C45.7 123.3 91.3 125.7 137 128.5C182.7 131.3 228.3 134.7 274 128.8C319.7 123 365.3 108 411.2 109.5C457 111 503 129 548.8 131.3C594.7 133.7 640.3 120.3 686 110.5C731.7 100.7 777.3 94.3 823 99.2C868.7 104 914.3 120 937.2 128L960 136L960 0L937.2 0C914.3 0 868.7 0 823 0C777.3 0 731.7 0 686 0C640.3 0 594.7 0 548.8 0C503 0 457 0 411.2 0C365.3 0 319.7 0 274 0C228.3 0 182.7 0 137 0C91.3 0 45.7 0 22.8 0L0 0Z" fill="#b9b9b9"></path><path d="M0 100L22.8 94.8C45.7 89.7 91.3 79.3 137 78.3C182.7 77.3 228.3 85.7 274 84.8C319.7 84 365.3 74 411.2 75C457 76 503 88 548.8 93C594.7 98 640.3 96 686 96.5C731.7 97 777.3 100 823 96C868.7 92 914.3 81 937.2 75.5L960 70L960 0L937.2 0C914.3 0 868.7 0 823 0C777.3 0 731.7 0 686 0C640.3 0 594.7 0 548.8 0C503 0 457 0 411.2 0C365.3 0 319.7 0 274 0C228.3 0 182.7 0 137 0C91.3 0 45.7 0 22.8 0L0 0Z" fill="#777777"></path><path d="M0 82L22.8 75.3C45.7 68.7 91.3 55.3 137 55.3C182.7 55.3 228.3 68.7 274 69C319.7 69.3 365.3 56.7 411.2 55C457 53.3 503 62.7 548.8 65.8C594.7 69 640.3 66 686 62.3C731.7 58.7 777.3 54.3 823 55.7C868.7 57 914.3 64 937.2 67.5L960 71L960 0L937.2 0C914.3 0 868.7 0 823 0C777.3 0 731.7 0 686 0C640.3 0 594.7 0 548.8 0C503 0 457 0 411.2 0C365.3 0 319.7 0 274 0C228.3 0 182.7 0 137 0C91.3 0 45.7 0 22.8 0L0 0Z" fill="#3b3b3b"></path><path d="M0 19L22.8 21.7C45.7 24.3 91.3 29.7 137 29.3C182.7 29 228.3 23 274 21.5C319.7 20 365.3 23 411.2 25.3C457 27.7 503 29.3 548.8 29.2C594.7 29 640.3 27 686 24.8C731.7 22.7 777.3 20.3 823 23.5C868.7 26.7 914.3 35.3 937.2 39.7L960 44L960 0L937.2 0C914.3 0 868.7 0 823 0C777.3 0 731.7 0 686 0C640.3 0 594.7 0 548.8 0C503 0 457 0 411.2 0C365.3 0 319.7 0 274 0C228.3 0 182.7 0 137 0C91.3 0 45.7 0 22.8 0L0 0Z" fill="#000000"></path></svg>