<svg id="visual" viewBox="0 0 900 400" width="900" height="400" xmlns="http://www.w3.org/2000/svg" xmlns:xlink="http://www.w3.org/1999/xlink" version="1.1"><path d="M0 33L13.7 35C27.3 37 54.7 41 82 43C109.3 45 136.7 45 163.8 40.3C191 35.7 218 26.3 245.2 27C272.3 27.7 299.7 38.3 327 41.7C354.3 45 381.7 41 409 36.3C436.3 31.7 463.7 26.3 491 25.7C518.3 25 545.7 29 573 30.3C600.3 31.7 627.7 30.3 654.8 29C682 27.7 709 26.3 736.2 27C763.3 27.7 790.7 30.3 818 33C845.3 35.7 872.7 38.3 886.3 39.7L900 41L900 0L886.3 0C872.7 0 845.3 0 818 0C790.7 0 763.3 0 736.2 0C709 0 682 0 654.8 0C627.7 0 600.3 0 573 0C545.7 0 518.3 0 491 0C463.7 0 436.3 0 409 0C381.7 0 354.3 0 327 0C299.7 0 272.3 0 245.2 0C218 0 191 0 163.8 0C136.7 0 109.3 0 82 0C54.7 0 27.3 0 13.7 0L0 0Z" fill="#183664"></path><path d="M0 89L13.7 90.3C27.3 91.7 54.7 94.3 82 95C109.3 95.7 136.7 94.3 163.8 91C191 87.7 218 82.3 245.2 88.3C272.3 94.3 299.7 111.7 327 111C354.3 110.3 381.7 91.7 409 80.3C436.3 69 463.7 65 491 69C518.3 73 545.7 85 573 91C600.3 97 627.7 97 654.8 91.7C682 86.3 709 75.7 736.2 79C763.3 82.3 790.7 99.7 818 105.7C845.3 111.7 872.7 106.3 886.3 103.7L900 101L900 39L886.3 37.7C872.7 36.3 845.3 33.7 818 31C790.7 28.3 763.3 25.7 736.2 25C709 24.3 682 25.7 654.8 27C627.7 28.3 600.3 29.7 573 28.3C545.7 27 518.3 23 491 23.7C463.7 24.3 436.3 29.7 409 34.3C381.7 39 354.3 43 327 39.7C299.7 36.3 272.3 25.7 245.2 25C218 24.3 191 33.7 163.8 38.3C136.7 43 109.3 43 82 41C54.7 39 27.3 35 13.7 33L0 31Z" fill="#172e54"></path><path d="M0 129L13.7 127.7C27.3 126.3 54.7 123.7 82 125C109.3 126.3 136.7 131.7 163.8 134.3C191 137 218 137 245.2 144.3C272.3 151.7 299.7 166.3 327 165.7C354.3 165 381.7 149 409 133.7C436.3 118.3 463.7 103.7 491 105.7C518.3 107.7 545.7 126.3 573 132.3C600.3 138.3 627.7 131.7 654.8 127.7C682 123.7 709 122.3 736.2 127.7C763.3 133 790.7 145 818 150.3C845.3 155.7 872.7 154.3 886.3 153.7L900 153L900 99L886.3 101.7C872.7 104.3 845.3 109.7 818 103.7C790.7 97.7 763.3 80.3 736.2 77C709 73.7 682 84.3 654.8 89.7C627.7 95 600.3 95 573 89C545.7 83 518.3 71 491 67C463.7 63 436.3 67 409 78.3C381.7 89.7 354.3 108.3 327 109C299.7 109.7 272.3 92.3 245.2 86.3C218 80.3 191 85.7 163.8 89C136.7 92.3 109.3 93.7 82 93C54.7 92.3 27.3 89.7 13.7 88.3L0 87Z" fill="#152645"></path><path d="M0 165L13.7 161.7C27.3 158.3 54.7 151.7 82 153C109.3 154.3 136.7 163.7 163.8 168.3C191 173 218 173 245.2 181C272.3 189 299.7 205 327 201.7C354.3 198.3 381.7 175.7 409 159C436.3 142.3 463.7 131.7 491 136.3C518.3 141 545.7 161 573 165C600.3 169 627.7 157 654.8 152.3C682 147.7 709 150.3 736.2 156.3C763.3 162.3 790.7 171.7 818 177C845.3 182.3 872.7 183.7 886.3 184.3L900 185L900 151L886.3 151.7C872.7 152.3 845.3 153.7 818 148.3C790.7 143 763.3 131 736.2 125.7C709 120.3 682 121.7 654.8 125.7C627.7 129.7 600.3 136.3 573 130.3C545.7 124.3 518.3 105.7 491 103.7C463.7 101.7 436.3 116.3 409 131.7C381.7 147 354.3 163 327 163.7C299.7 164.3 272.3 149.7 245.2 142.3C218 135 191 135 163.8 132.3C136.7 129.7 109.3 124.3 82 123C54.7 121.7 27.3 124.3 13.7 125.7L0 127Z" fill="#131f36"></path><path d="M0 249L13.7 241.7C27.3 234.3 54.7 219.7 82 219.7C109.3 219.7 136.7 234.3 163.8 236.3C191 238.3 218 227.7 245.2 231.7C272.3 235.7 299.7 254.3 327 262.3C354.3 270.3 381.7 267.7 409 261.7C436.3 255.7 463.7 246.3 491 241C518.3 235.7 545.7 234.3 573 246.3C600.3 258.3 627.7 283.7 654.8 287C682 290.3 709 271.7 736.2 269.7C763.3 267.7 790.7 282.3 818 289.7C845.3 297 872.7 297 886.3 297L900 297L900 183L886.3 182.3C872.7 181.7 845.3 180.3 818 175C790.7 169.7 763.3 160.3 736.2 154.3C709 148.3 682 145.7 654.8 150.3C627.7 155 600.3 167 573 163C545.7 159 518.3 139 491 134.3C463.7 129.7 436.3 140.3 409 157C381.7 173.7 354.3 196.3 327 199.7C299.7 203 272.3 187 245.2 179C218 171 191 171 163.8 166.3C136.7 161.7 109.3 152.3 82 151C54.7 149.7 27.3 156.3 13.7 159.7L0 163Z" fill="#101828"></path><path d="M0 349L13.7 351.7C27.3 354.3 54.7 359.7 82 360.3C109.3 361 136.7 357 163.8 353C191 349 218 345 245.2 348.3C272.3 351.7 299.7 362.3 327 368.3C354.3 374.3 381.7 375.7 409 370.3C436.3 365 463.7 353 491 346.3C518.3 339.7 545.7 338.3 573 343C600.3 347.7 627.7 358.3 654.8 360.3C682 362.3 709 355.7 736.2 353.7C763.3 351.7 790.7 354.3 818 354.3C845.3 354.3 872.7 351.7 886.3 350.3L900 349L900 295L886.3 295C872.7 295 845.3 295 818 287.7C790.7 280.3 763.3 265.7 736.2 267.7C709 269.7 682 288.3 654.8 285C627.7 281.7 600.3 256.3 573 244.3C545.7 232.3 518.3 233.7 491 239C463.7 244.3 436.3 253.7 409 259.7C381.7 265.7 354.3 268.3 327 260.3C299.7 252.3 272.3 233.7 245.2 229.7C218 225.7 191 236.3 163.8 234.3C136.7 232.3 109.3 217.7 82 217.7C54.7 217.7 27.3 232.3 13.7 239.7L0 247Z" fill="#0b0f1b"></path><path d="M0 401L13.7 401C27.3 401 54.7 401 82 401C109.3 401 136.7 401 163.8 401C191 401 218 401 245.2 401C272.3 401 299.7 401 327 401C354.3 401 381.7 401 409 401C436.3 401 463.7 401 491 401C518.3 401 545.7 401 573 401C600.3 401 627.7 401 654.8 401C682 401 709 401 736.2 401C763.3 401 790.7 401 818 401C845.3 401 872.7 401 886.3 401L900 401L900 347L886.3 348.3C872.7 349.7 845.3 352.3 818 352.3C790.7 352.3 763.3 349.7 736.2 351.7C709 353.7 682 360.3 654.8 358.3C627.7 356.3 600.3 345.7 573 341C545.7 336.3 518.3 337.7 491 344.3C463.7 351 436.3 363 409 368.3C381.7 373.7 354.3 372.3 327 366.3C299.7 360.3 272.3 349.7 245.2 346.3C218 343 191 347 163.8 351C136.7 355 109.3 359 82 358.3C54.7 357.7 27.3 352.3 13.7 349.7L0 347Z" fill="#01030b"></path></svg>