<svg id="visual" viewBox="0 0 900 450" width="900" height="450" xmlns="http://www.w3.org/2000/svg" xmlns:xlink="http://www.w3.org/1999/xlink" version="1.1"><path d="M0 150L15 140.2C30 130.3 60 110.7 90 110.7C120 110.7 150 130.3 180 137.8C210 145.3 240 140.7 270 138.3C300 136 330 136 360 130C390 124 420 112 450 112C480 112 510 124 540 127C570 130 600 124 630 116.5C660 109 690 100 720 97C750 94 780 97 810 101.5C840 106 870 112 885 115L900 118L900 0L885 0C870 0 840 0 810 0C780 0 750 0 720 0C690 0 660 0 630 0C600 0 570 0 540 0C510 0 480 0 450 0C420 0 390 0 360 0C330 0 300 0 270 0C240 0 210 0 180 0C150 0 120 0 90 0C60 0 30 0 15 0L0 0Z" fill="#173663"></path><path d="M0 195L15 184.5C30 174 60 153 90 152.2C120 151.3 150 170.7 180 177.3C210 184 240 178 270 176.5C300 175 330 178 360 175.8C390 173.7 420 166.3 450 166.3C480 166.3 510 173.7 540 174.3C570 175 600 169 630 159.3C660 149.7 690 136.3 720 134.2C750 132 780 141 810 150C840 159 870 168 885 172.5L900 177L900 116L885 113C870 110 840 104 810 99.5C780 95 750 92 720 95C690 98 660 107 630 114.5C600 122 570 128 540 125C510 122 480 110 450 110C420 110 390 122 360 128C330 134 300 134 270 136.3C240 138.7 210 143.3 180 135.8C150 128.3 120 108.7 90 108.7C60 108.7 30 128.3 15 138.2L0 148Z" fill="#152e54"></path><path d="M0 240L15 234C30 228 60 216 90 214.5C120 213 150 222 180 227.2C210 232.3 240 233.7 270 233.7C300 233.7 330 232.3 360 226.3C390 220.3 420 209.7 450 211.8C480 214 510 229 540 233.5C570 238 600 232 630 220C660 208 690 190 720 184C750 178 780 184 810 190.8C840 197.7 870 205.3 885 209.2L900 213L900 175L885 170.5C870 166 840 157 810 148C780 139 750 130 720 132.2C690 134.3 660 147.7 630 157.3C600 167 570 173 540 172.3C510 171.7 480 164.3 450 164.3C420 164.3 390 171.7 360 173.8C330 176 300 173 270 174.5C240 176 210 182 180 175.3C150 168.7 120 149.3 90 150.2C60 151 30 172 15 182.5L0 193Z" fill="#132745"></path><path d="M0 289L15 283C30 277 60 265 90 261.3C120 257.7 150 262.3 180 265.3C210 268.3 240 269.7 270 269.7C300 269.7 330 268.3 360 262.3C390 256.3 420 245.7 450 247.2C480 248.7 510 262.3 540 267.7C570 273 600 270 630 259.5C660 249 690 231 720 225C750 219 780 225 810 232.5C840 240 870 249 885 253.5L900 258L900 211L885 207.2C870 203.3 840 195.7 810 188.8C780 182 750 176 720 182C690 188 660 206 630 218C600 230 570 236 540 231.5C510 227 480 212 450 209.8C420 207.7 390 218.3 360 224.3C330 230.3 300 231.7 270 231.7C240 231.7 210 230.3 180 225.2C150 220 120 211 90 212.5C60 214 30 226 15 232L0 238Z" fill="#111f37"></path><path d="M0 352L15 346.8C30 341.7 60 331.3 90 328.3C120 325.3 150 329.7 180 333.3C210 337 240 340 270 343C300 346 330 349 360 342.3C390 335.7 420 319.3 450 315.7C480 312 510 321 540 330C570 339 600 348 630 345C660 342 690 327 720 315.7C750 304.3 780 296.7 810 297.3C840 298 870 307 885 311.5L900 316L900 256L885 251.5C870 247 840 238 810 230.5C780 223 750 217 720 223C690 229 660 247 630 257.5C600 268 570 271 540 265.7C510 260.3 480 246.7 450 245.2C420 243.7 390 254.3 360 260.3C330 266.3 300 267.7 270 267.7C240 267.7 210 266.3 180 263.3C150 260.3 120 255.7 90 259.3C60 263 30 275 15 281L0 287Z" fill="#0e182a"></path><path d="M0 451L15 451C30 451 60 451 90 451C120 451 150 451 180 451C210 451 240 451 270 451C300 451 330 451 360 451C390 451 420 451 450 451C480 451 510 451 540 451C570 451 600 451 630 451C660 451 690 451 720 451C750 451 780 451 810 451C840 451 870 451 885 451L900 451L900 314L885 309.5C870 305 840 296 810 295.3C780 294.7 750 302.3 720 313.7C690 325 660 340 630 343C600 346 570 337 540 328C510 319 480 310 450 313.7C420 317.3 390 333.7 360 340.3C330 347 300 344 270 341C240 338 210 335 180 331.3C150 327.7 120 323.3 90 326.3C60 329.3 30 339.7 15 344.8L0 350Z" fill="#0a101d"></path></svg>