<svg id="visual" viewBox="0 0 960 540" width="960" height="540" xmlns="http://www.w3.org/2000/svg" xmlns:xlink="http://www.w3.org/1999/xlink" version="1.1"><path d="M0 147L11.5 153.3C23 159.7 46 172.3 68.8 173.2C91.7 174 114.3 163 137.2 148.5C160 134 183 116 205.8 117C228.7 118 251.3 138 274.2 147C297 156 320 154 342.8 147.7C365.7 141.3 388.3 130.7 411.2 136.2C434 141.7 457 163.3 480 175C503 186.7 526 188.3 548.8 178.3C571.7 168.3 594.3 146.7 617.2 131.3C640 116 663 107 685.8 112.5C708.7 118 731.3 138 754.2 145.2C777 152.3 800 146.7 822.8 148.3C845.7 150 868.3 159 891.2 166.3C914 173.7 937 179.3 948.5 182.2L960 185L960 0L948.5 0C937 0 914 0 891.2 0C868.3 0 845.7 0 822.8 0C800 0 777 0 754.2 0C731.3 0 708.7 0 685.8 0C663 0 640 0 617.2 0C594.3 0 571.7 0 548.8 0C526 0 503 0 480 0C457 0 434 0 411.2 0C388.3 0 365.7 0 342.8 0C320 0 297 0 274.2 0C251.3 0 228.7 0 205.8 0C183 0 160 0 137.2 0C114.3 0 91.7 0 68.8 0C46 0 23 0 11.5 0L0 0Z" fill="#1a1f38"></path><path d="M0 239L11.5 244.3C23 249.7 46 260.3 68.8 258.5C91.7 256.7 114.3 242.3 137.2 230.7C160 219 183 210 205.8 210C228.7 210 251.3 219 274.2 226.2C297 233.3 320 238.7 342.8 231.5C365.7 224.3 388.3 204.7 411.2 209.2C434 213.7 457 242.3 480 262C503 281.7 526 292.3 548.8 281.5C571.7 270.7 594.3 238.3 617.2 222.2C640 206 663 206 685.8 213.2C708.7 220.3 731.3 234.7 754.2 234.7C777 234.7 800 220.3 822.8 225.8C845.7 231.3 868.3 256.7 891.2 263.8C914 271 937 260 948.5 254.5L960 249L960 183L948.5 180.2C937 177.3 914 171.7 891.2 164.3C868.3 157 845.7 148 822.8 146.3C800 144.7 777 150.3 754.2 143.2C731.3 136 708.7 116 685.8 110.5C663 105 640 114 617.2 129.3C594.3 144.7 571.7 166.3 548.8 176.3C526 186.3 503 184.7 480 173C457 161.3 434 139.7 411.2 134.2C388.3 128.7 365.7 139.3 342.8 145.7C320 152 297 154 274.2 145C251.3 136 228.7 116 205.8 115C183 114 160 132 137.2 146.5C114.3 161 91.7 172 68.8 171.2C46 170.3 23 157.7 11.5 151.3L0 145Z" fill="#161b2f"></path><path d="M0 293L11.5 298.3C23 303.7 46 314.3 68.8 315.2C91.7 316 114.3 307 137.2 295.3C160 283.7 183 269.3 205.8 265.7C228.7 262 251.3 269 274.2 276.2C297 283.3 320 290.7 342.8 283.5C365.7 276.3 388.3 254.7 411.2 261.8C434 269 457 305 480 323C503 341 526 341 548.8 326.7C571.7 312.3 594.3 283.7 617.2 269.3C640 255 663 255 685.8 263C708.7 271 731.3 287 754.2 287.8C777 288.7 800 274.3 822.8 277.2C845.7 280 868.3 300 891.2 310C914 320 937 320 948.5 320L960 320L960 247L948.5 252.5C937 258 914 269 891.2 261.8C868.3 254.7 845.7 229.3 822.8 223.8C800 218.3 777 232.7 754.2 232.7C731.3 232.7 708.7 218.3 685.8 211.2C663 204 640 204 617.2 220.2C594.3 236.3 571.7 268.7 548.8 279.5C526 290.3 503 279.7 480 260C457 240.3 434 211.7 411.2 207.2C388.3 202.7 365.7 222.3 342.8 229.5C320 236.7 297 231.3 274.2 224.2C251.3 217 228.7 208 205.8 208C183 208 160 217 137.2 228.7C114.3 240.3 91.7 254.7 68.8 256.5C46 258.3 23 247.7 11.5 242.3L0 237Z" fill="#131626"></path><path d="M0 357L11.5 359.8C23 362.7 46 368.3 68.8 365.7C91.7 363 114.3 352 137.2 341.2C160 330.3 183 319.7 205.8 318.8C228.7 318 251.3 327 274.2 332.3C297 337.7 320 339.3 342.8 329.3C365.7 319.3 388.3 297.7 411.2 308.5C434 319.3 457 362.7 480 382.5C503 402.3 526 398.7 548.8 382.5C571.7 366.3 594.3 337.7 617.2 323.3C640 309 663 309 685.8 318.8C708.7 328.7 731.3 348.3 754.2 350.2C777 352 800 336 822.8 337.8C845.7 339.7 868.3 359.3 891.2 365.5C914 371.7 937 364.3 948.5 360.7L960 357L960 318L948.5 318C937 318 914 318 891.2 308C868.3 298 845.7 278 822.8 275.2C800 272.3 777 286.7 754.2 285.8C731.3 285 708.7 269 685.8 261C663 253 640 253 617.2 267.3C594.3 281.7 571.7 310.3 548.8 324.7C526 339 503 339 480 321C457 303 434 267 411.2 259.8C388.3 252.7 365.7 274.3 342.8 281.5C320 288.7 297 281.3 274.2 274.2C251.3 267 228.7 260 205.8 263.7C183 267.3 160 281.7 137.2 293.3C114.3 305 91.7 314 68.8 313.2C46 312.3 23 301.7 11.5 296.3L0 291Z" fill="#0f111e"></path><path d="M0 465L11.5 465C23 465 46 465 68.8 463.3C91.7 461.7 114.3 458.3 137.2 459.3C160 460.3 183 465.7 205.8 471.8C228.7 478 251.3 485 274.2 484C297 483 320 474 342.8 469.5C365.7 465 388.3 465 411.2 470.5C434 476 457 487 480 491.5C503 496 526 494 548.8 487.7C571.7 481.3 594.3 470.7 617.2 465.3C640 460 663 460 685.8 460C708.7 460 731.3 460 754.2 459.2C777 458.3 800 456.7 822.8 459.3C845.7 462 868.3 469 891.2 472.5C914 476 937 476 948.5 476L960 476L960 355L948.5 358.7C937 362.3 914 369.7 891.2 363.5C868.3 357.3 845.7 337.7 822.8 335.8C800 334 777 350 754.2 348.2C731.3 346.3 708.7 326.7 685.8 316.8C663 307 640 307 617.2 321.3C594.3 335.7 571.7 364.3 548.8 380.5C526 396.7 503 400.3 480 380.5C457 360.7 434 317.3 411.2 306.5C388.3 295.7 365.7 317.3 342.8 327.3C320 337.3 297 335.7 274.2 330.3C251.3 325 228.7 316 205.8 316.8C183 317.7 160 328.3 137.2 339.2C114.3 350 91.7 361 68.8 363.7C46 366.3 23 360.7 11.5 357.8L0 355Z" fill="#080b16"></path><path d="M0 541L11.5 541C23 541 46 541 68.8 541C91.7 541 114.3 541 137.2 541C160 541 183 541 205.8 541C228.7 541 251.3 541 274.2 541C297 541 320 541 342.8 541C365.7 541 388.3 541 411.2 541C434 541 457 541 480 541C503 541 526 541 548.8 541C571.7 541 594.3 541 617.2 541C640 541 663 541 685.8 541C708.7 541 731.3 541 754.2 541C777 541 800 541 822.8 541C845.7 541 868.3 541 891.2 541C914 541 937 541 948.5 541L960 541L960 474L948.5 474C937 474 914 474 891.2 470.5C868.3 467 845.7 460 822.8 457.3C800 454.7 777 456.3 754.2 457.2C731.3 458 708.7 458 685.8 458C663 458 640 458 617.2 463.3C594.3 468.7 571.7 479.3 548.8 485.7C526 492 503 494 480 489.5C457 485 434 474 411.2 468.5C388.3 463 365.7 463 342.8 467.5C320 472 297 481 274.2 482C251.3 483 228.7 476 205.8 469.8C183 463.7 160 458.3 137.2 457.3C114.3 456.3 91.7 459.7 68.8 461.3C46 463 23 463 11.5 463L0 463Z" fill="#01030b"></path></svg>