<svg id="visual" viewBox="0 0 900 400" width="900" height="400" xmlns="http://www.w3.org/2000/svg" xmlns:xlink="http://www.w3.org/1999/xlink" version="1.1"><path d="M0 49L13.7 55C27.3 61 54.7 73 82 73.7C109.3 74.3 136.7 63.7 163.8 62.3C191 61 218 69 245.2 71.7C272.3 74.3 299.7 71.7 327 65.7C354.3 59.7 381.7 50.3 409 51.7C436.3 53 463.7 65 491 69.7C518.3 74.3 545.7 71.7 573 71.7C600.3 71.7 627.7 74.3 654.8 70.3C682 66.3 709 55.7 736.2 55.7C763.3 55.7 790.7 66.3 818 72.3C845.3 78.3 872.7 79.7 886.3 80.3L900 81L900 0L886.3 0C872.7 0 845.3 0 818 0C790.7 0 763.3 0 736.2 0C709 0 682 0 654.8 0C627.7 0 600.3 0 573 0C545.7 0 518.3 0 491 0C463.7 0 436.3 0 409 0C381.7 0 354.3 0 327 0C299.7 0 272.3 0 245.2 0C218 0 191 0 163.8 0C136.7 0 109.3 0 82 0C54.7 0 27.3 0 13.7 0L0 0Z" fill="#3b2f4a"></path><path d="M0 93L13.7 95.7C27.3 98.3 54.7 103.7 82 104.3C109.3 105 136.7 101 163.8 105.7C191 110.3 218 123.7 245.2 129C272.3 134.3 299.7 131.7 327 120.3C354.3 109 381.7 89 409 90.3C436.3 91.7 463.7 114.3 491 123.7C518.3 133 545.7 129 573 128.3C600.3 127.7 627.7 130.3 654.8 128.3C682 126.3 709 119.7 736.2 118.3C763.3 117 790.7 121 818 125.7C845.3 130.3 872.7 135.7 886.3 138.3L900 141L900 79L886.3 78.3C872.7 77.7 845.3 76.3 818 70.3C790.7 64.3 763.3 53.7 736.2 53.7C709 53.7 682 64.3 654.8 68.3C627.7 72.3 600.3 69.7 573 69.7C545.7 69.7 518.3 72.3 491 67.7C463.7 63 436.3 51 409 49.7C381.7 48.3 354.3 57.7 327 63.7C299.7 69.7 272.3 72.3 245.2 69.7C218 67 191 59 163.8 60.3C136.7 61.7 109.3 72.3 82 71.7C54.7 71 27.3 59 13.7 53L0 47Z" fill="#383050"></path><path d="M0 141L13.7 160.3C27.3 179.7 54.7 218.3 82 220.3C109.3 222.3 136.7 187.7 163.8 183.7C191 179.7 218 206.3 245.2 226.3C272.3 246.3 299.7 259.7 327 246.3C354.3 233 381.7 193 409 189.7C436.3 186.3 463.7 219.7 491 225C518.3 230.3 545.7 207.7 573 211C600.3 214.3 627.7 243.7 654.8 247.7C682 251.7 709 230.3 736.2 233C763.3 235.7 790.7 262.3 818 265C845.3 267.7 872.7 246.3 886.3 235.7L900 225L900 139L886.3 136.3C872.7 133.7 845.3 128.3 818 123.7C790.7 119 763.3 115 736.2 116.3C709 117.7 682 124.3 654.8 126.3C627.7 128.3 600.3 125.7 573 126.3C545.7 127 518.3 131 491 121.7C463.7 112.3 436.3 89.7 409 88.3C381.7 87 354.3 107 327 118.3C299.7 129.7 272.3 132.3 245.2 127C218 121.7 191 108.3 163.8 103.7C136.7 99 109.3 103 82 102.3C54.7 101.7 27.3 96.3 13.7 93.7L0 91Z" fill="#323257"></path><path d="M0 245L13.7 253.7C27.3 262.3 54.7 279.7 82 279.7C109.3 279.7 136.7 262.3 163.8 263.7C191 265 218 285 245.2 298.3C272.3 311.7 299.7 318.3 327 310.3C354.3 302.3 381.7 279.7 409 273.7C436.3 267.7 463.7 278.3 491 280.3C518.3 282.3 545.7 275.7 573 285C600.3 294.3 627.7 319.7 654.8 321.7C682 323.7 709 302.3 736.2 299C763.3 295.7 790.7 310.3 818 315.7C845.3 321 872.7 317 886.3 315L900 313L900 223L886.3 233.7C872.7 244.3 845.3 265.7 818 263C790.7 260.3 763.3 233.7 736.2 231C709 228.3 682 249.7 654.8 245.7C627.7 241.7 600.3 212.3 573 209C545.7 205.7 518.3 228.3 491 223C463.7 217.7 436.3 184.3 409 187.7C381.7 191 354.3 231 327 244.3C299.7 257.7 272.3 244.3 245.2 224.3C218 204.3 191 177.7 163.8 181.7C136.7 185.7 109.3 220.3 82 218.3C54.7 216.3 27.3 177.7 13.7 158.3L0 139Z" fill="#28345e"></path><path d="M0 401L13.7 401C27.3 401 54.7 401 82 401C109.3 401 136.7 401 163.8 401C191 401 218 401 245.2 401C272.3 401 299.7 401 327 401C354.3 401 381.7 401 409 401C436.3 401 463.7 401 491 401C518.3 401 545.7 401 573 401C600.3 401 627.7 401 654.8 401C682 401 709 401 736.2 401C763.3 401 790.7 401 818 401C845.3 401 872.7 401 886.3 401L900 401L900 311L886.3 313C872.7 315 845.3 319 818 313.7C790.7 308.3 763.3 293.7 736.2 297C709 300.3 682 321.7 654.8 319.7C627.7 317.7 600.3 292.3 573 283C545.7 273.7 518.3 280.3 491 278.3C463.7 276.3 436.3 265.7 409 271.7C381.7 277.7 354.3 300.3 327 308.3C299.7 316.3 272.3 309.7 245.2 296.3C218 283 191 263 163.8 261.7C136.7 260.3 109.3 277.7 82 277.7C54.7 277.7 27.3 260.3 13.7 251.7L0 243Z" fill="#183664"></path></svg>