<svg id="visual" viewBox="0 0 900 450" width="900" height="450" xmlns="http://www.w3.org/2000/svg" xmlns:xlink="http://www.w3.org/1999/xlink" version="1.1"><path d="M0 136L25 149.5C50 163 100 190 150 184.8C200 179.7 250 142.3 300 132.7C350 123 400 141 450 150.7C500 160.3 550 161.7 600 147.3C650 133 700 103 750 107.5C800 112 850 151 875 170.5L900 190L900 0L875 0C850 0 800 0 750 0C700 0 650 0 600 0C550 0 500 0 450 0C400 0 350 0 300 0C250 0 200 0 150 0C100 0 50 0 25 0L0 0Z" fill="#3e3e4e"></path><path d="M0 168L25 185.2C50 202.3 100 236.7 150 229.2C200 221.7 250 172.3 300 159.7C350 147 400 171 450 183.7C500 196.3 550 197.7 600 181.8C650 166 700 133 750 136.8C800 140.7 850 181.3 875 201.7L900 222L900 188L875 168.5C850 149 800 110 750 105.5C700 101 650 131 600 145.3C550 159.7 500 158.3 450 148.7C400 139 350 121 300 130.7C250 140.3 200 177.7 150 182.8C100 188 50 161 25 147.5L0 134Z" fill="#353544"></path><path d="M0 258L25 264.7C50 271.3 100 284.7 150 276.3C200 268 250 238 300 235C350 232 400 256 450 265C500 274 550 268 600 245.5C650 223 700 184 750 184C800 184 850 223 875 242.5L900 262L900 220L875 199.7C850 179.3 800 138.7 750 134.8C700 131 650 164 600 179.8C550 195.7 500 194.3 450 181.7C400 169 350 145 300 157.7C250 170.3 200 219.7 150 227.2C100 234.7 50 200.3 25 183.2L0 166Z" fill="#2d2d3a"></path><path d="M0 312L25 317.2C50 322.3 100 332.7 150 325.2C200 317.7 250 292.3 300 290.8C350 289.3 400 311.7 450 318.3C500 325 550 316 600 296.5C650 277 700 247 750 247C800 247 850 277 875 292L900 307L900 260L875 240.5C850 221 800 182 750 182C700 182 650 221 600 243.5C550 266 500 272 450 263C400 254 350 230 300 233C250 236 200 266 150 274.3C100 282.7 50 269.3 25 262.7L0 256Z" fill="#252530"></path><path d="M0 379L25 382C50 385 100 391 150 385.8C200 380.7 250 364.3 300 362.8C350 361.3 400 374.7 450 377.7C500 380.7 550 373.3 600 356.2C650 339 700 312 750 309C800 306 850 327 875 337.5L900 348L900 305L875 290C850 275 800 245 750 245C700 245 650 275 600 294.5C550 314 500 323 450 316.3C400 309.7 350 287.3 300 288.8C250 290.3 200 315.7 150 323.2C100 330.7 50 320.3 25 315.2L0 310Z" fill="#1d1d27"></path><path d="M0 451L25 451C50 451 100 451 150 451C200 451 250 451 300 451C350 451 400 451 450 451C500 451 550 451 600 451C650 451 700 451 750 451C800 451 850 451 875 451L900 451L900 346L875 335.5C850 325 800 304 750 307C700 310 650 337 600 354.2C550 371.3 500 378.7 450 375.7C400 372.7 350 359.3 300 360.8C250 362.3 200 378.7 150 383.8C100 389 50 383 25 380L0 377Z" fill="#16161e"></path></svg>