<svg id="visual" viewBox="0 0 900 250" width="900" height="250" xmlns="http://www.w3.org/2000/svg" xmlns:xlink="http://www.w3.org/1999/xlink" version="1.1"><path d="M0 24L13.7 25.7C27.3 27.3 54.7 30.7 82 32.7C109.3 34.7 136.7 35.3 163.8 33.2C191 31 218 26 245.2 23.2C272.3 20.3 299.7 19.7 327 23.5C354.3 27.3 381.7 35.7 409 40.2C436.3 44.7 463.7 45.3 491 42.8C518.3 40.3 545.7 34.7 573 32.2C600.3 29.7 627.7 30.3 654.8 29.8C682 29.3 709 27.7 736.2 30.2C763.3 32.7 790.7 39.3 818 42.7C845.3 46 872.7 46 886.3 46L900 46L900 0L886.3 0C872.7 0 845.3 0 818 0C790.7 0 763.3 0 736.2 0C709 0 682 0 654.8 0C627.7 0 600.3 0 573 0C545.7 0 518.3 0 491 0C463.7 0 436.3 0 409 0C381.7 0 354.3 0 327 0C299.7 0 272.3 0 245.2 0C218 0 191 0 163.8 0C136.7 0 109.3 0 82 0C54.7 0 27.3 0 13.7 0L0 0Z" fill="#071324"></path><path d="M0 59L13.7 58.5C27.3 58 54.7 57 82 55.7C109.3 54.3 136.7 52.7 163.8 53.2C191 53.7 218 56.3 245.2 55.5C272.3 54.7 299.7 50.3 327 54.8C354.3 59.3 381.7 72.7 409 78.5C436.3 84.3 463.7 82.7 491 78.2C518.3 73.7 545.7 66.3 573 61.3C600.3 56.3 627.7 53.7 654.8 55.3C682 57 709 63 736.2 67.7C763.3 72.3 790.7 75.7 818 79C845.3 82.3 872.7 85.7 886.3 87.3L900 89L900 44L886.3 44C872.7 44 845.3 44 818 40.7C790.7 37.3 763.3 30.7 736.2 28.2C709 25.7 682 27.3 654.8 27.8C627.7 28.3 600.3 27.7 573 30.2C545.7 32.7 518.3 38.3 491 40.8C463.7 43.3 436.3 42.7 409 38.2C381.7 33.7 354.3 25.3 327 21.5C299.7 17.7 272.3 18.3 245.2 21.2C218 24 191 29 163.8 31.2C136.7 33.3 109.3 32.7 82 30.7C54.7 28.7 27.3 25.3 13.7 23.7L0 22Z" fill="#081529"></path><path d="M0 114L13.7 109.8C27.3 105.7 54.7 97.3 82 93.2C109.3 89 136.7 89 163.8 92.3C191 95.7 218 102.3 245.2 101.5C272.3 100.7 299.7 92.3 327 93.5C354.3 94.7 381.7 105.3 409 108.2C436.3 111 463.7 106 491 105.7C518.3 105.3 545.7 109.7 573 107.2C600.3 104.7 627.7 95.3 654.8 92C682 88.7 709 91.3 736.2 100.2C763.3 109 790.7 124 818 130.7C845.3 137.3 872.7 135.7 886.3 134.8L900 134L900 87L886.3 85.3C872.7 83.7 845.3 80.3 818 77C790.7 73.7 763.3 70.3 736.2 65.7C709 61 682 55 654.8 53.3C627.7 51.7 600.3 54.3 573 59.3C545.7 64.3 518.3 71.7 491 76.2C463.7 80.7 436.3 82.3 409 76.5C381.7 70.7 354.3 57.3 327 52.8C299.7 48.3 272.3 52.7 245.2 53.5C218 54.3 191 51.7 163.8 51.2C136.7 50.7 109.3 52.3 82 53.7C54.7 55 27.3 56 13.7 56.5L0 57Z" fill="#08172f"></path><path d="M0 199L13.7 200.7C27.3 202.3 54.7 205.7 82 197.3C109.3 189 136.7 169 163.8 168.2C191 167.3 218 185.7 245.2 195.2C272.3 204.7 299.7 205.3 327 206.2C354.3 207 381.7 208 409 203.5C436.3 199 463.7 189 491 187.3C518.3 185.7 545.7 192.3 573 193.5C600.3 194.7 627.7 190.3 654.8 183.2C682 176 709 166 736.2 165.2C763.3 164.3 790.7 172.7 818 180.2C845.3 187.7 872.7 194.3 886.3 197.7L900 201L900 132L886.3 132.8C872.7 133.7 845.3 135.3 818 128.7C790.7 122 763.3 107 736.2 98.2C709 89.3 682 86.7 654.8 90C627.7 93.3 600.3 102.7 573 105.2C545.7 107.7 518.3 103.3 491 103.7C463.7 104 436.3 109 409 106.2C381.7 103.3 354.3 92.7 327 91.5C299.7 90.3 272.3 98.7 245.2 99.5C218 100.3 191 93.7 163.8 90.3C136.7 87 109.3 87 82 91.2C54.7 95.3 27.3 103.7 13.7 107.8L0 112Z" fill="#102649"></path><path d="M0 251L13.7 251C27.3 251 54.7 251 82 251C109.3 251 136.7 251 163.8 251C191 251 218 251 245.2 251C272.3 251 299.7 251 327 251C354.3 251 381.7 251 409 251C436.3 251 463.7 251 491 251C518.3 251 545.7 251 573 251C600.3 251 627.7 251 654.8 251C682 251 709 251 736.2 251C763.3 251 790.7 251 818 251C845.3 251 872.7 251 886.3 251L900 251L900 199L886.3 195.7C872.7 192.3 845.3 185.7 818 178.2C790.7 170.7 763.3 162.3 736.2 163.2C709 164 682 174 654.8 181.2C627.7 188.3 600.3 192.7 573 191.5C545.7 190.3 518.3 183.7 491 185.3C463.7 187 436.3 197 409 201.5C381.7 206 354.3 205 327 204.2C299.7 203.3 272.3 202.7 245.2 193.2C218 183.7 191 165.3 163.8 166.2C136.7 167 109.3 187 82 195.3C54.7 203.7 27.3 200.3 13.7 198.7L0 197Z" fill="#183664"></path></svg>