<svg id="visual" viewBox="0 0 900 400" width="900" height="400" xmlns="http://www.w3.org/2000/svg" xmlns:xlink="http://www.w3.org/1999/xlink" version="1.1"><path d="M0 53L18.8 46.3C37.7 39.7 75.3 26.3 112.8 19C150.3 11.7 187.7 10.3 225.2 14.3C262.7 18.3 300.3 27.7 337.8 33.7C375.3 39.7 412.7 42.3 450.2 39.7C487.7 37 525.3 29 562.8 29C600.3 29 637.7 37 675.2 41C712.7 45 750.3 45 787.8 46.3C825.3 47.7 862.7 50.3 881.3 51.7L900 53L900 0L881.3 0C862.7 0 825.3 0 787.8 0C750.3 0 712.7 0 675.2 0C637.7 0 600.3 0 562.8 0C525.3 0 487.7 0 450.2 0C412.7 0 375.3 0 337.8 0C300.3 0 262.7 0 225.2 0C187.7 0 150.3 0 112.8 0C75.3 0 37.7 0 18.8 0L0 0Z" fill="#000000"></path><path d="M0 77L18.8 70.3C37.7 63.7 75.3 50.3 112.8 39.7C150.3 29 187.7 21 225.2 25.7C262.7 30.3 300.3 47.7 337.8 55C375.3 62.3 412.7 59.7 450.2 56.3C487.7 53 525.3 49 562.8 51C600.3 53 637.7 61 675.2 63.7C712.7 66.3 750.3 63.7 787.8 63C825.3 62.3 862.7 63.7 881.3 64.3L900 65L900 51L881.3 49.7C862.7 48.3 825.3 45.7 787.8 44.3C750.3 43 712.7 43 675.2 39C637.7 35 600.3 27 562.8 27C525.3 27 487.7 35 450.2 37.7C412.7 40.3 375.3 37.7 337.8 31.7C300.3 25.7 262.7 16.3 225.2 12.3C187.7 8.3 150.3 9.7 112.8 17C75.3 24.3 37.7 37.7 18.8 44.3L0 51Z" fill="#03010f"></path><path d="M0 85L18.8 81.7C37.7 78.3 75.3 71.7 112.8 67C150.3 62.3 187.7 59.7 225.2 67.7C262.7 75.7 300.3 94.3 337.8 96.3C375.3 98.3 412.7 83.7 450.2 77.7C487.7 71.7 525.3 74.3 562.8 75C600.3 75.7 637.7 74.3 675.2 79C712.7 83.7 750.3 94.3 787.8 98.3C825.3 102.3 862.7 99.7 881.3 98.3L900 97L900 63L881.3 62.3C862.7 61.7 825.3 60.3 787.8 61C750.3 61.7 712.7 64.3 675.2 61.7C637.7 59 600.3 51 562.8 49C525.3 47 487.7 51 450.2 54.3C412.7 57.7 375.3 60.3 337.8 53C300.3 45.7 262.7 28.3 225.2 23.7C187.7 19 150.3 27 112.8 37.7C75.3 48.3 37.7 61.7 18.8 68.3L0 75Z" fill="#050411"></path><path d="M0 209L18.8 197.7C37.7 186.3 75.3 163.7 112.8 146.3C150.3 129 187.7 117 225.2 116.3C262.7 115.7 300.3 126.3 337.8 129C375.3 131.7 412.7 126.3 450.2 138.3C487.7 150.3 525.3 179.7 562.8 176.3C600.3 173 637.7 137 675.2 127.7C712.7 118.3 750.3 135.7 787.8 143C825.3 150.3 862.7 147.7 881.3 146.3L900 145L900 95L881.3 96.3C862.7 97.7 825.3 100.3 787.8 96.3C750.3 92.3 712.7 81.7 675.2 77C637.7 72.3 600.3 73.7 562.8 73C525.3 72.3 487.7 69.7 450.2 75.7C412.7 81.7 375.3 96.3 337.8 94.3C300.3 92.3 262.7 73.7 225.2 65.7C187.7 57.7 150.3 60.3 112.8 65C75.3 69.7 37.7 76.3 18.8 79.7L0 83Z" fill="#080713"></path><path d="M0 221L18.8 210.3C37.7 199.7 75.3 178.3 112.8 160.3C150.3 142.3 187.7 127.7 225.2 127.7C262.7 127.7 300.3 142.3 337.8 147.7C375.3 153 412.7 149 450.2 161C487.7 173 525.3 201 562.8 195C600.3 189 637.7 149 675.2 141C712.7 133 750.3 157 787.8 164.3C825.3 171.7 862.7 162.3 881.3 157.7L900 153L900 143L881.3 144.3C862.7 145.7 825.3 148.3 787.8 141C750.3 133.7 712.7 116.3 675.2 125.7C637.7 135 600.3 171 562.8 174.3C525.3 177.7 487.7 148.3 450.2 136.3C412.7 124.3 375.3 129.7 337.8 127C300.3 124.3 262.7 113.7 225.2 114.3C187.7 115 150.3 127 112.8 144.3C75.3 161.7 37.7 184.3 18.8 195.7L0 207Z" fill="#0a0915"></path><path d="M0 253L18.8 260.3C37.7 267.7 75.3 282.3 112.8 278.3C150.3 274.3 187.7 251.7 225.2 245.7C262.7 239.7 300.3 250.3 337.8 259C375.3 267.7 412.7 274.3 450.2 275C487.7 275.7 525.3 270.3 562.8 257C600.3 243.7 637.7 222.3 675.2 220.3C712.7 218.3 750.3 235.7 787.8 240.3C825.3 245 862.7 237 881.3 233L900 229L900 151L881.3 155.7C862.7 160.3 825.3 169.7 787.8 162.3C750.3 155 712.7 131 675.2 139C637.7 147 600.3 187 562.8 193C525.3 199 487.7 171 450.2 159C412.7 147 375.3 151 337.8 145.7C300.3 140.3 262.7 125.7 225.2 125.7C187.7 125.7 150.3 140.3 112.8 158.3C75.3 176.3 37.7 197.7 18.8 208.3L0 219Z" fill="#0d0c16"></path><path d="M0 289L18.8 293.7C37.7 298.3 75.3 307.7 112.8 303C150.3 298.3 187.7 279.7 225.2 271C262.7 262.3 300.3 263.7 337.8 269.7C375.3 275.7 412.7 286.3 450.2 289C487.7 291.7 525.3 286.3 562.8 275C600.3 263.7 637.7 246.3 675.2 245.7C712.7 245 750.3 261 787.8 263.7C825.3 266.3 862.7 255.7 881.3 250.3L900 245L900 227L881.3 231C862.7 235 825.3 243 787.8 238.3C750.3 233.7 712.7 216.3 675.2 218.3C637.7 220.3 600.3 241.7 562.8 255C525.3 268.3 487.7 273.7 450.2 273C412.7 272.3 375.3 265.7 337.8 257C300.3 248.3 262.7 237.7 225.2 243.7C187.7 249.7 150.3 272.3 112.8 276.3C75.3 280.3 37.7 265.7 18.8 258.3L0 251Z" fill="#0f0e18"></path><path d="M0 333L18.8 336.3C37.7 339.7 75.3 346.3 112.8 343.7C150.3 341 187.7 329 225.2 323C262.7 317 300.3 317 337.8 317C375.3 317 412.7 317 450.2 319.7C487.7 322.3 525.3 327.7 562.8 319C600.3 310.3 637.7 287.7 675.2 280.3C712.7 273 750.3 281 787.8 283.7C825.3 286.3 862.7 283.7 881.3 282.3L900 281L900 243L881.3 248.3C862.7 253.7 825.3 264.3 787.8 261.7C750.3 259 712.7 243 675.2 243.7C637.7 244.3 600.3 261.7 562.8 273C525.3 284.3 487.7 289.7 450.2 287C412.7 284.3 375.3 273.7 337.8 267.7C300.3 261.7 262.7 260.3 225.2 269C187.7 277.7 150.3 296.3 112.8 301C75.3 305.7 37.7 296.3 18.8 291.7L0 287Z" fill="#111019"></path><path d="M0 365L18.8 365.7C37.7 366.3 75.3 367.7 112.8 363.7C150.3 359.7 187.7 350.3 225.2 349C262.7 347.7 300.3 354.3 337.8 355.7C375.3 357 412.7 353 450.2 351.7C487.7 350.3 525.3 351.7 562.8 347.7C600.3 343.7 637.7 334.3 675.2 337C712.7 339.7 750.3 354.3 787.8 359.7C825.3 365 862.7 361 881.3 359L900 357L900 279L881.3 280.3C862.7 281.7 825.3 284.3 787.8 281.7C750.3 279 712.7 271 675.2 278.3C637.7 285.7 600.3 308.3 562.8 317C525.3 325.7 487.7 320.3 450.2 317.7C412.7 315 375.3 315 337.8 315C300.3 315 262.7 315 225.2 321C187.7 327 150.3 339 112.8 341.7C75.3 344.3 37.7 337.7 18.8 334.3L0 331Z" fill="#13121b"></path><path d="M0 381L18.8 382.3C37.7 383.7 75.3 386.3 112.8 383.7C150.3 381 187.7 373 225.2 371.7C262.7 370.3 300.3 375.7 337.8 377C375.3 378.3 412.7 375.7 450.2 375C487.7 374.3 525.3 375.7 562.8 373C600.3 370.3 637.7 363.7 675.2 365.7C712.7 367.7 750.3 378.3 787.8 381.7C825.3 385 862.7 381 881.3 379L900 377L900 355L881.3 357C862.7 359 825.3 363 787.8 357.7C750.3 352.3 712.7 337.7 675.2 335C637.7 332.3 600.3 341.7 562.8 345.7C525.3 349.7 487.7 348.3 450.2 349.7C412.7 351 375.3 355 337.8 353.7C300.3 352.3 262.7 345.7 225.2 347C187.7 348.3 150.3 357.7 112.8 361.7C75.3 365.7 37.7 364.3 18.8 363.7L0 363Z" fill="#14141c"></path><path d="M0 389L18.8 389.7C37.7 390.3 75.3 391.7 112.8 389.7C150.3 387.7 187.7 382.3 225.2 382.3C262.7 382.3 300.3 387.7 337.8 390.3C375.3 393 412.7 393 450.2 393.7C487.7 394.3 525.3 395.7 562.8 393C600.3 390.3 637.7 383.7 675.2 383.7C712.7 383.7 750.3 390.3 787.8 392.3C825.3 394.3 862.7 391.7 881.3 390.3L900 389L900 375L881.3 377C862.7 379 825.3 383 787.8 379.7C750.3 376.3 712.7 365.7 675.2 363.7C637.7 361.7 600.3 368.3 562.8 371C525.3 373.7 487.7 372.3 450.2 373C412.7 373.7 375.3 376.3 337.8 375C300.3 373.7 262.7 368.3 225.2 369.7C187.7 371 150.3 379 112.8 381.7C75.3 384.3 37.7 381.7 18.8 380.3L0 379Z" fill="#16151e"></path><path d="M0 401L18.8 401C37.7 401 75.3 401 112.8 401C150.3 401 187.7 401 225.2 401C262.7 401 300.3 401 337.8 401C375.3 401 412.7 401 450.2 401C487.7 401 525.3 401 562.8 401C600.3 401 637.7 401 675.2 401C712.7 401 750.3 401 787.8 401C825.3 401 862.7 401 881.3 401L900 401L900 387L881.3 388.3C862.7 389.7 825.3 392.3 787.8 390.3C750.3 388.3 712.7 381.7 675.2 381.7C637.7 381.7 600.3 388.3 562.8 391C525.3 393.7 487.7 392.3 450.2 391.7C412.7 391 375.3 391 337.8 388.3C300.3 385.7 262.7 380.3 225.2 380.3C187.7 380.3 150.3 385.7 112.8 387.7C75.3 389.7 37.7 388.3 18.8 387.7L0 387Z" fill="#17171f"></path></svg>