<svg id="visual" viewBox="0 0 900 250" width="900" height="250" xmlns="http://www.w3.org/2000/svg" xmlns:xlink="http://www.w3.org/1999/xlink" version="1.1"><path d="M0 29L13.7 26.8C27.3 24.7 54.7 20.3 82 19C109.3 17.7 136.7 19.3 163.8 21.8C191 24.3 218 27.7 245.2 27.7C272.3 27.7 299.7 24.3 327 24.8C354.3 25.3 381.7 29.7 409 29.3C436.3 29 463.7 24 491 22.3C518.3 20.7 545.7 22.3 573 24.3C600.3 26.3 627.7 28.7 654.8 30.3C682 32 709 33 736.2 29.7C763.3 26.3 790.7 18.7 818 15.3C845.3 12 872.7 13 886.3 13.5L900 14L900 0L886.3 0C872.7 0 845.3 0 818 0C790.7 0 763.3 0 736.2 0C709 0 682 0 654.8 0C627.7 0 600.3 0 573 0C545.7 0 518.3 0 491 0C463.7 0 436.3 0 409 0C381.7 0 354.3 0 327 0C299.7 0 272.3 0 245.2 0C218 0 191 0 163.8 0C136.7 0 109.3 0 82 0C54.7 0 27.3 0 13.7 0L0 0Z" fill="#000000"></path><path d="M0 86L13.7 82.7C27.3 79.3 54.7 72.7 82 72.3C109.3 72 136.7 78 163.8 88C191 98 218 112 245.2 113.2C272.3 114.3 299.7 102.7 327 99C354.3 95.3 381.7 99.7 409 97.7C436.3 95.7 463.7 87.3 491 80.7C518.3 74 545.7 69 573 70.2C600.3 71.3 627.7 78.7 654.8 84.8C682 91 709 96 736.2 97.3C763.3 98.7 790.7 96.3 818 93.5C845.3 90.7 872.7 87.3 886.3 85.7L900 84L900 12L886.3 11.5C872.7 11 845.3 10 818 13.3C790.7 16.7 763.3 24.3 736.2 27.7C709 31 682 30 654.8 28.3C627.7 26.7 600.3 24.3 573 22.3C545.7 20.3 518.3 18.7 491 20.3C463.7 22 436.3 27 409 27.3C381.7 27.7 354.3 23.3 327 22.8C299.7 22.3 272.3 25.7 245.2 25.7C218 25.7 191 22.3 163.8 19.8C136.7 17.3 109.3 15.7 82 17C54.7 18.3 27.3 22.7 13.7 24.8L0 27Z" fill="#000000"></path><path d="M0 106L13.7 103.2C27.3 100.3 54.7 94.7 82 92.7C109.3 90.7 136.7 92.3 163.8 99.8C191 107.3 218 120.7 245.2 121.5C272.3 122.3 299.7 110.7 327 107.3C354.3 104 381.7 109 409 106.8C436.3 104.7 463.7 95.3 491 89.8C518.3 84.3 545.7 82.7 573 85.7C600.3 88.7 627.7 96.3 654.8 101.3C682 106.3 709 108.7 736.2 110.3C763.3 112 790.7 113 818 110.2C845.3 107.3 872.7 100.7 886.3 97.3L900 94L900 82L886.3 83.7C872.7 85.3 845.3 88.7 818 91.5C790.7 94.3 763.3 96.7 736.2 95.3C709 94 682 89 654.8 82.8C627.7 76.7 600.3 69.3 573 68.2C545.7 67 518.3 72 491 78.7C463.7 85.3 436.3 93.7 409 95.7C381.7 97.7 354.3 93.3 327 97C299.7 100.7 272.3 112.3 245.2 111.2C218 110 191 96 163.8 86C136.7 76 109.3 70 82 70.3C54.7 70.7 27.3 77.3 13.7 80.7L0 84Z" fill="#000000"></path><path d="M0 129L13.7 124.3C27.3 119.7 54.7 110.3 82 106.5C109.3 102.7 136.7 104.3 163.8 111.5C191 118.7 218 131.3 245.2 134.3C272.3 137.3 299.7 130.7 327 127.3C354.3 124 381.7 124 409 121.8C436.3 119.7 463.7 115.3 491 110.7C518.3 106 545.7 101 573 102.3C600.3 103.7 627.7 111.3 654.8 118C682 124.7 709 130.3 736.2 133.2C763.3 136 790.7 136 818 131.8C845.3 127.7 872.7 119.3 886.3 115.2L900 111L900 92L886.3 95.3C872.7 98.7 845.3 105.3 818 108.2C790.7 111 763.3 110 736.2 108.3C709 106.7 682 104.3 654.8 99.3C627.7 94.3 600.3 86.7 573 83.7C545.7 80.7 518.3 82.3 491 87.8C463.7 93.3 436.3 102.7 409 104.8C381.7 107 354.3 102 327 105.3C299.7 108.7 272.3 120.3 245.2 119.5C218 118.7 191 105.3 163.8 97.8C136.7 90.3 109.3 88.7 82 90.7C54.7 92.7 27.3 98.3 13.7 101.2L0 104Z" fill="#000000"></path><path d="M0 166L13.7 167.7C27.3 169.3 54.7 172.7 82 169.3C109.3 166 136.7 156 163.8 157.7C191 159.3 218 172.7 245.2 174C272.3 175.3 299.7 164.7 327 160.2C354.3 155.7 381.7 157.3 409 156.8C436.3 156.3 463.7 153.7 491 155.7C518.3 157.7 545.7 164.3 573 168.2C600.3 172 627.7 173 654.8 172.7C682 172.3 709 170.7 736.2 171.8C763.3 173 790.7 177 818 174.5C845.3 172 872.7 163 886.3 158.5L900 154L900 109L886.3 113.2C872.7 117.3 845.3 125.7 818 129.8C790.7 134 763.3 134 736.2 131.2C709 128.3 682 122.7 654.8 116C627.7 109.3 600.3 101.7 573 100.3C545.7 99 518.3 104 491 108.7C463.7 113.3 436.3 117.7 409 119.8C381.7 122 354.3 122 327 125.3C299.7 128.7 272.3 135.3 245.2 132.3C218 129.3 191 116.7 163.8 109.5C136.7 102.3 109.3 100.7 82 104.5C54.7 108.3 27.3 117.7 13.7 122.3L0 127Z" fill="#080808"></path><path d="M0 194L13.7 194.3C27.3 194.7 54.7 195.3 82 195.7C109.3 196 136.7 196 163.8 198.2C191 200.3 218 204.7 245.2 206.8C272.3 209 299.7 209 327 207.3C354.3 205.7 381.7 202.3 409 199.3C436.3 196.3 463.7 193.7 491 195.7C518.3 197.7 545.7 204.3 573 208.5C600.3 212.7 627.7 214.3 654.8 214C682 213.7 709 211.3 736.2 208.8C763.3 206.3 790.7 203.7 818 202.8C845.3 202 872.7 203 886.3 203.5L900 204L900 152L886.3 156.5C872.7 161 845.3 170 818 172.5C790.7 175 763.3 171 736.2 169.8C709 168.7 682 170.3 654.8 170.7C627.7 171 600.3 170 573 166.2C545.7 162.3 518.3 155.7 491 153.7C463.7 151.7 436.3 154.3 409 154.8C381.7 155.3 354.3 153.7 327 158.2C299.7 162.7 272.3 173.3 245.2 172C218 170.7 191 157.3 163.8 155.7C136.7 154 109.3 164 82 167.3C54.7 170.7 27.3 167.3 13.7 165.7L0 164Z" fill="#151515"></path><path d="M0 221L13.7 219.3C27.3 217.7 54.7 214.3 82 212.3C109.3 210.3 136.7 209.7 163.8 212.7C191 215.7 218 222.3 245.2 225.2C272.3 228 299.7 227 327 224.5C354.3 222 381.7 218 409 215.5C436.3 213 463.7 212 491 214.5C518.3 217 545.7 223 573 226.3C600.3 229.7 627.7 230.3 654.8 229.8C682 229.3 709 227.7 736.2 225.2C763.3 222.7 790.7 219.3 818 220.2C845.3 221 872.7 226 886.3 228.5L900 231L900 202L886.3 201.5C872.7 201 845.3 200 818 200.8C790.7 201.7 763.3 204.3 736.2 206.8C709 209.3 682 211.7 654.8 212C627.7 212.3 600.3 210.7 573 206.5C545.7 202.3 518.3 195.7 491 193.7C463.7 191.7 436.3 194.3 409 197.3C381.7 200.3 354.3 203.7 327 205.3C299.7 207 272.3 207 245.2 204.8C218 202.7 191 198.3 163.8 196.2C136.7 194 109.3 194 82 193.7C54.7 193.3 27.3 192.7 13.7 192.3L0 192Z" fill="#1e1e1e"></path><path d="M0 251L13.7 251C27.3 251 54.7 251 82 251C109.3 251 136.7 251 163.8 251C191 251 218 251 245.2 251C272.3 251 299.7 251 327 251C354.3 251 381.7 251 409 251C436.3 251 463.7 251 491 251C518.3 251 545.7 251 573 251C600.3 251 627.7 251 654.8 251C682 251 709 251 736.2 251C763.3 251 790.7 251 818 251C845.3 251 872.7 251 886.3 251L900 251L900 229L886.3 226.5C872.7 224 845.3 219 818 218.2C790.7 217.3 763.3 220.7 736.2 223.2C709 225.7 682 227.3 654.8 227.8C627.7 228.3 600.3 227.7 573 224.3C545.7 221 518.3 215 491 212.5C463.7 210 436.3 211 409 213.5C381.7 216 354.3 220 327 222.5C299.7 225 272.3 226 245.2 223.2C218 220.3 191 213.7 163.8 210.7C136.7 207.7 109.3 208.3 82 210.3C54.7 212.3 27.3 215.7 13.7 217.3L0 219Z" fill="#282828"></path></svg>