<?xml version="1.0" encoding="UTF-8"?>
<svg id="Layer_1" data-name="Layer 1" xmlns="http://www.w3.org/2000/svg" xmlns:xlink="http://www.w3.org/1999/xlink" viewBox="0 0 3636.04 2476.04">
  <defs>
    <style>
      .cls-1 {
        fill: #fff;
      }

      .cls-2 {
        fill: #091725;
      }

      .cls-3, .cls-4 {
        fill: none;
      }

      .cls-4 {
        clip-path: url(#clippath);
      }

      .cls-5 {
        fill: #0e1f33;
      }

      .cls-6 {
        fill: #142846;
      }
    </style>
    <clipPath id="clippath">
      <rect class="cls-3" x="160.09" y="350.49" width="2880" height="1800"/>
    </clipPath>
  </defs>
  <g class="cls-4">
    <g>
      <rect class="cls-2" x="160.09" y="350.49" width="2880" height="1800"/>
      <path class="cls-5" d="m139.51,1423.11c33.62-46.02,78.09-84.06,128.76-110.16,32.87-16.93,69.92-29.04,106.52-23.78,68.64,9.86,113.14,74.43,163.97,121.6,78.94,73.26,189.85,110.79,297.06,100.51,150.9-14.47,280.64-116.12,429.68-143.83,35.1-6.53,72.06-8.73,105.93,2.58,75.04,25.05,114.02,107.43,132.44,184.37,20.39,85.18,25.88,173.36,24.15,260.93-1.56,79.2-1.21,174.45,65.79,216.7,33.89,21.37,76.27,22.24,116.31,23.54,248.98,8.03,496.55,57.85,729.26,146.73-292.49,41.72-584.46,87.03-875.84,135.91-294.57,49.42-593.52,102.67-890.27,68.67-155.23-17.79-308.99-59.39-465.05-51.91-51.46,2.47-107.35,9.23-150.63-18.7-58.71-37.88-65.97-121.76-50.68-189.94,15.28-68.18,46.78-134.41,42.82-204.17"/>
      <path class="cls-5" d="m1311.47,278.1c-27.4,34.27-12.92,88.84,20.78,116.94,33.69,28.1,80.1,35.21,123.97,35.68,104.55,1.13,209.47-28.95,312.63-11.96,31.11,5.13,62.67,15.17,85.65,36.76,43.07,40.46,43.99,107.13,45.22,166.21,1.88,90,11.96,181.63,48.9,263.72,36.94,82.1,104.13,154.13,190.52,179.47,134.68,39.52,272.88-39.04,391.11-114.69,118.23-75.64,255.73-154.9,390.81-116.76,150.88,42.59,248.21,221.39,404.95,224.64,120.87,2.51,215.63-103.88,270.97-211.37,29.62-57.55,53.49-125.89,28.75-185.7-19.89-48.07-66.25-78.64-106.18-111.99-68.43-57.17-123.58-130.14-159.91-211.58-31.35-70.28-50.63-149.45-105.49-203.42-41.8-41.13-99.11-62.06-155.46-78.32-201.4-58.11-415.7-71.05-622.64-37.59-129.83,20.99-257.95,60.06-389.45,58.67-86.55-.91-172.05-19.4-258.52-23.13-172.89-7.44-347.79,46.47-486.49,149.95"/>
      <path class="cls-5" d="m143.04,1125.72c64.42-45.02,144.11-92.07,216.72-62.01,43.59,18.05,71.9,59.81,108.28,89.85,103.48,85.47,256.35,66.68,385.26,29.27,128.9-37.41,263.52-89.28,393.32-55.1,156.69,41.27,255.26,193.93,392.77,279.64,107.45,66.97,238.23,91.25,364.47,81.58s248.37-51.74,361.3-108.98c-211.27,121.43-505.52,71.6-665.03-112.62-52.39-60.51-90.41-132.03-139.25-195.44-82.57-107.19-200.9-191.76-334.76-211.49-76.52-11.28-154.35-1.31-231.69-.34-77.34.98-158.67-8.49-221.93-52.99-128.18-90.16-133.43-282.36-237.65-399.39-52.31-58.74-129.07-95-207.67-98.08-34.49-1.35-70.9,4.12-98.31,25.1-56.84,43.51-51.42,128.24-54.54,199.76-3.78,86.63-28.56,172.28-71.62,247.55"/>
      <path class="cls-5" d="m3095.88,1616.82c-45.19-50.08-104.84-105-170.32-88.8-52.27,12.93-82.61,66.06-125.16,99.05-65.25,50.59-156.43,51.02-237.51,35.44-81.08-15.58-160.35-44.84-242.91-45.75-37-.41-76.56,6.11-103.69,31.28-27.84,25.83-37.11,67.29-31.6,104.87,8.51,58.08,50.82,109.94,106,129.95,40.92,14.84,85.68,12.79,129.2,13.35,67.18.87,138.42,10.08,190.7,52.28,61.49,49.63,82.86,132.76,127.09,198.24,35.67,52.8,88.63,95.17,150.23,111.47,61.6,16.3,131.56,4.33,180.07-36.98,13.12-11.17,25.46-27.95,20.02-44.3-5.65-16.98-26.4-22.55-43.97-25.9-49.93-9.54-102.23-23.38-137.44-60.05-39.35-40.98-49.35-102.07-82.01-148.56-26.05-37.09-66.69-63.63-111.12-72.57-33.31-6.7-68.24-3.87-100.98-12.97-32.74-9.1-64.88-36.17-62.93-70.1,1.55-26.84,25.05-48.86,51.18-55.19,26.12-6.33,53.83.36,78.31,11.46,46.01,20.86,83.49,56.32,121.18,89.96,37.69,33.64,77.93,66.86,126.26,81.57,48.33,14.7,106.95,6.59,139.34-32.17,33.56-40.17,31.98-102.35,68.33-140.01,25.53-26.45,70.51-44.69,67.63-81.33"/>
      <path class="cls-5" d="m3126.58,1280.17c-12.9-57.1-51.73-107.81-103.5-135.15-24.75-13.07-56.25-20.49-79.86-5.47-17.13,10.89-26.04,31.44-28.35,51.61-5.69,49.59,22.42,96.6,53.75,135.46,25.48,31.61,53.86,60.88,84.67,87.32,32.92,28.26,76.62,54.6,117.37,39.72,25.37-9.27,43.32-33.6,49.73-59.83,6.41-26.24,2.55-54.07-5.66-79.8"/>
      <path class="cls-5" d="m728.16,324.77c-13.9,1.93-23.91,15.55-25.92,29.43-2.01,13.88,2.31,27.87,7.42,40.94,37.52,95.83,123.67,171.13,223.66,195.5,51.14,12.46,112.94,8.7,145.86-32.37,23.09-28.81,25.98-69.77,16.5-105.45-9.48-35.68-29.75-67.38-49.72-98.43-23.61-36.71-47.22-73.41-70.82-110.12-24.97-38.83-50.35-78.14-84.52-109.17-34.17-31.03-78.77-53.35-124.87-51.11-46.11,2.24-92.12,33.68-101.85,78.81"/>
      <path class="cls-5" d="m3006.87,1055.51c-45.38,4.49-86.08,30.17-120.2,60.42-34.12,30.25-63.48,65.6-98.03,95.35-58.17,50.09-130.74,83.28-206.68,94.53-29.21,4.33-64.26,3.05-81.3-21.07-19.7-27.88-2.17-66.51,18.72-93.51,62.27-80.47,152.3-135.37,246.11-174.76,56.99-23.93,117.64-43.04,179.41-40.55,46.9,1.89,97.09,17.78,131.87,50.41,68.97,64.71-36.4,25.87-69.92,29.19Z"/>
      <path class="cls-6" d="m100.07,1532.17c25.46,18.08,61.04,10.04,89-3.87,27.96-13.9,54.47-33.28,85.5-36.79,40.51-4.59,78.95,19.13,108.75,46.95,29.8,27.83,55.18,60.98,89.54,82.93,61.35,39.19,141.45,35.89,211.02,14.46,69.57-21.43,132.99-58.96,200.61-85.9,63.97-25.49,131.74-41.44,200.37-47.15,41.99-3.49,85.15-3.04,125.09,10.37,39.95,13.41,76.57,41.34,92.54,80.34,24.14,58.95-2.78,125.96,2.86,189.41,5.9,66.38,47.44,124.8,96.82,169.55,49.38,44.75,107.25,78.99,159.44,120.43,49.73,39.49,94.24,85.54,132.02,136.58,24.86,33.58,46.68,81.25,21.37,114.49-8.05,10.57-19.76,17.63-31.24,24.32-108.08,62.99-225.25,116.53-349.97,126.32-124.71,9.79-258.63-30.5-337.37-127.71-71.74-88.56-94.64-217.11-188.75-281.39-59.1-40.37-134.87-46.36-206.41-44.18-71.54,2.18-144.11,11.14-214.03-4.17-114.89-25.17-205.31-111.46-286.27-196.77-20.22-21.31-41.06-44.27-47.33-72.97-8.44-38.65,11.42-77.26,30.62-111.85"/>
      <path class="cls-6" d="m1881.55,302.13c59.41-9.21,117.39,33.64,143.8,87.65,26.41,54.01,27.73,116.57,25.24,176.64-2.5,60.06-8.19,121.15,5.84,179.6,14.03,58.45,52.55,115.27,110.24,132.15,48.44,14.17,100.5-1.91,146.18-23.38,45.68-21.47,89.6-48.74,139.1-58.65,65-13.01,131.71,5.35,197.93,8.34,75.81,3.42,152.45-13.87,219.45-49.51,77.39-41.18,153.38-108.74,239.57-92.72,46.6,8.66,85.19,41.08,130.07,56.33,43.67,14.85,92.95,12.45,134.97-6.56,24.66-11.16,48.76-31.16,51.06-58.13,3.52-41.28-42.39-67.19-81.01-82.18-69.56-27-139.12-54-208.68-81-50.79-19.72-103.26-39.74-157.72-38.31-96.31,2.53-177.69,70.45-270.22,97.27-62.84,18.22-131.21,16.84-193.26-3.9-45.82-15.31-91.72-45.63-103.63-92.45-8.03-31.56.82-65-2.85-97.36-6.08-53.66-46.55-98.51-94.04-124.22-47.5-25.71-101.72-35.49-154.9-44.92-57.59-10.21-115.17-20.42-172.76-30.63-4.7-.83-9.54-1.67-14.23-.75-27.13,5.29-14.73,48.7-28.96,72.4"/>
      <path class="cls-6" d="m137.36,1064.94c-13.51-46.47,34.78-86.75,78.96-106.51,47.1-21.07,100.62-35.87,149.97-20.81,52.31,15.96,89.04,61.67,133.84,93.04,77.43,54.22,184.16,63.42,269.73,23.27,29.97-14.06,57.14-33.53,86.98-47.86,105.15-50.49,241.03-27.32,323.51,55.16-1.27-44.38-38.84-79.15-77.6-100.81-57.48-32.12-124.11-47.67-189.87-44.31-51.34,2.62-102.3,16.45-153.49,11.69-58.85-5.48-114.83-36.76-150.33-84.01-27.29-36.32-42.15-80.17-61-121.52-40.63-89.15-101.52-169-176.74-231.79-36.08-30.11-76.14-56.69-121.17-70.14-45.03-13.45-95.7-12.64-137.02,9.75-59.51,32.24-89.41,103.88-88.94,171.57.47,67.68,26.29,132.47,54.84,193.83"/>
    </g>
    <g>
      <circle class="cls-1" cx="366.09" cy="658.49" r="5"/>
      <circle class="cls-1" cx="330.59" cy="741.99" r="3.5"/>
      <circle class="cls-1" cx="404.09" cy="743.49" r="2"/>
      <circle class="cls-1" cx="404.09" cy="809.49" r="2"/>
      <circle class="cls-1" cx="502.09" cy="932.49" r="4"/>
      <circle class="cls-1" cx="546.59" cy="887.99" r="4.5"/>
      <circle class="cls-1" cx="492.09" cy="843.49" r="6"/>
      <circle class="cls-1" cx="590.09" cy="989.49" r="5"/>
      <circle class="cls-1" cx="647.09" cy="957.49" r="6"/>
      <circle class="cls-1" cx="489.09" cy="1047.49" r="3"/>
      <circle class="cls-1" cx="368.59" cy="1162.99" r="2.5"/>
      <circle class="cls-1" cx="395.59" cy="1067.99" r="6.5"/>
      <circle class="cls-1" cx="392.59" cy="1225.99" r="3.5"/>
      <circle class="cls-1" cx="476.59" cy="1273.99" r="3.5"/>
      <circle class="cls-1" cx="524.59" cy="1218.99" r="3.5"/>
      <circle class="cls-1" cx="455.59" cy="1192.99" r="9.5"/>
      <circle class="cls-1" cx="333.09" cy="1220.49" r="2"/>
      <circle class="cls-1" cx="330.59" cy="1151.99" r="3.5"/>
      <circle class="cls-1" cx="271.59" cy="1271.99" r="1.5"/>
      <circle class="cls-1" cx="652.59" cy="1362.99" r="11.5"/>
      <circle class="cls-1" cx="708.09" cy="1274.49" r="3"/>
      <circle class="cls-1" cx="737.59" cy="1354.99" r="3.5"/>
      <circle class="cls-1" cx="647.09" cy="1303.49" r="6"/>
      <circle class="cls-1" cx="596.09" cy="1368.49" r="6"/>
      <circle class="cls-1" cx="817.59" cy="1456.99" r="14.5"/>
      <circle class="cls-1" cx="913.09" cy="1314.49" r="5"/>
      <circle class="cls-1" cx="974.59" cy="1352.99" r="1.5"/>
      <circle class="cls-1" cx="1058.59" cy="1254.99" r="15.5"/>
      <circle class="cls-1" cx="927.09" cy="879.49" r="9"/>
      <circle class="cls-1" cx="1023.09" cy="784.49" r="7"/>
      <circle class="cls-1" cx="888.09" cy="735.49" r="6"/>
      <circle class="cls-1" cx="723.09" cy="602.49" r="2"/>
      <circle class="cls-1" cx="647.59" cy="590.99" r="2.5"/>
      <circle class="cls-1" cx="651.59" cy="533.99" r="6.5"/>
      <circle class="cls-1" cx="590.59" cy="586.99" r="3.5"/>
      <circle class="cls-1" cx="646.09" cy="678.49" r="4"/>
      <circle class="cls-1" cx="681.09" cy="666.49" r="3"/>
      <circle class="cls-1" cx="685.59" cy="750.99" r="7.5"/>
      <circle class="cls-1" cx="738.09" cy="723.49" r="2"/>
      <circle class="cls-1" cx="894.09" cy="484.49" r="6"/>
      <circle class="cls-1" cx="991.09" cy="478.49" r="5"/>
      <circle class="cls-1" cx="1063.59" cy="635.99" r="1.5"/>
      <circle class="cls-1" cx="1136.09" cy="556.49" r="2"/>
      <circle class="cls-1" cx="1194.09" cy="754.49" r="4"/>
      <circle class="cls-1" cx="1218.59" cy="738.99" r="3.5"/>
      <circle class="cls-1" cx="1225.09" cy="924.49" r="6"/>
      <circle class="cls-1" cx="1254.09" cy="900.49" r="3"/>
      <circle class="cls-1" cx="1182.59" cy="1063.99" r="7.5"/>
      <circle class="cls-1" cx="1163.09" cy="1014.49" r="5"/>
      <circle class="cls-1" cx="1112.59" cy="1016.99" r="2.5"/>
      <circle class="cls-1" cx="1160.59" cy="1175.99" r="7.5"/>
      <circle class="cls-1" cx="1212.59" cy="1152.99" r="3.5"/>
      <circle class="cls-1" cx="1220.09" cy="1195.49" r="1"/>
      <circle class="cls-1" cx="1339.09" cy="1092.49" r="6"/>
      <circle class="cls-1" cx="1360.09" cy="1292.49" r="7"/>
      <circle class="cls-1" cx="1427.59" cy="1259.99" r="7.5"/>
      <circle class="cls-1" cx="1326.59" cy="1456.99" r="4.5"/>
      <circle class="cls-1" cx="1368.59" cy="1443.99" r="1.5"/>
      <circle class="cls-1" cx="1188.59" cy="1647.99" r="7.5"/>
      <circle class="cls-1" cx="1231.59" cy="1623.99" r="2.5"/>
      <circle class="cls-1" cx="1039.59" cy="1755.99" r="6.5"/>
      <circle class="cls-1" cx="1047.09" cy="1667.49" r="8"/>
      <circle class="cls-1" cx="869.09" cy="1784.49" r="14"/>
      <circle class="cls-1" cx="914.09" cy="1741.49" r="4"/>
      <circle class="cls-1" cx="877.59" cy="1611.99" r="5.5"/>
      <circle class="cls-1" cx="996.59" cy="1482.99" r="5.5"/>
      <circle class="cls-1" cx="1065.09" cy="1397.49" r="4"/>
      <circle class="cls-1" cx="746.09" cy="1580.49" r="8"/>
    </g>
    <g>
      <circle class="cls-1" cx="1531.09" cy="891.49" r="5"/>
      <circle class="cls-1" cx="1495.59" cy="974.99" r="3.5"/>
      <circle class="cls-1" cx="1569.09" cy="976.49" r="2"/>
      <circle class="cls-1" cx="1569.09" cy="1042.49" r="2"/>
      <circle class="cls-1" cx="1667.09" cy="1165.49" r="4"/>
      <circle class="cls-1" cx="1711.59" cy="1120.99" r="4.5"/>
      <circle class="cls-1" cx="1657.09" cy="1076.49" r="6"/>
      <circle class="cls-1" cx="1755.09" cy="1222.49" r="5"/>
      <circle class="cls-1" cx="1812.09" cy="1190.49" r="6"/>
      <circle class="cls-1" cx="1654.09" cy="1280.49" r="3"/>
      <circle class="cls-1" cx="1533.59" cy="1395.99" r="2.5"/>
      <circle class="cls-1" cx="1560.59" cy="1300.99" r="6.5"/>
      <circle class="cls-1" cx="1557.59" cy="1458.99" r="3.5"/>
      <circle class="cls-1" cx="1641.59" cy="1506.99" r="3.5"/>
      <circle class="cls-1" cx="1689.59" cy="1451.99" r="3.5"/>
      <circle class="cls-1" cx="1620.59" cy="1425.99" r="9.5"/>
      <circle class="cls-1" cx="1498.09" cy="1453.49" r="2"/>
      <circle class="cls-1" cx="1495.59" cy="1384.99" r="3.5"/>
      <circle class="cls-1" cx="1436.59" cy="1504.99" r="1.5"/>
      <circle class="cls-1" cx="1817.59" cy="1595.99" r="11.5"/>
      <circle class="cls-1" cx="1873.09" cy="1507.49" r="3"/>
      <circle class="cls-1" cx="1902.59" cy="1587.99" r="3.5"/>
      <circle class="cls-1" cx="1812.09" cy="1536.49" r="6"/>
      <circle class="cls-1" cx="1761.09" cy="1601.49" r="6"/>
      <circle class="cls-1" cx="1982.59" cy="1689.99" r="14.5"/>
      <circle class="cls-1" cx="2078.09" cy="1547.49" r="5"/>
      <circle class="cls-1" cx="2139.59" cy="1585.99" r="1.5"/>
      <circle class="cls-1" cx="2223.59" cy="1487.99" r="15.5"/>
      <circle class="cls-1" cx="2092.09" cy="1112.49" r="9"/>
      <circle class="cls-1" cx="2188.09" cy="1017.49" r="7"/>
      <circle class="cls-1" cx="2053.09" cy="968.49" r="6"/>
      <circle class="cls-1" cx="1888.09" cy="835.49" r="2"/>
      <circle class="cls-1" cx="1812.59" cy="823.99" r="2.5"/>
      <circle class="cls-1" cx="1816.59" cy="766.99" r="6.5"/>
      <circle class="cls-1" cx="1755.59" cy="819.99" r="3.5"/>
      <circle class="cls-1" cx="1811.09" cy="911.49" r="4"/>
      <circle class="cls-1" cx="1846.09" cy="899.49" r="3"/>
      <circle class="cls-1" cx="1850.59" cy="983.99" r="7.5"/>
      <circle class="cls-1" cx="1903.09" cy="956.49" r="2"/>
      <circle class="cls-1" cx="2059.09" cy="717.49" r="6"/>
      <circle class="cls-1" cx="2156.09" cy="711.49" r="5"/>
      <circle class="cls-1" cx="2228.59" cy="868.99" r="1.5"/>
      <circle class="cls-1" cx="2301.09" cy="789.49" r="2"/>
      <circle class="cls-1" cx="2359.09" cy="987.49" r="4"/>
      <circle class="cls-1" cx="2383.59" cy="971.99" r="3.5"/>
      <circle class="cls-1" cx="2390.09" cy="1157.49" r="6"/>
      <circle class="cls-1" cx="2419.09" cy="1133.49" r="3"/>
      <circle class="cls-1" cx="2347.59" cy="1296.99" r="7.5"/>
      <circle class="cls-1" cx="2328.09" cy="1247.49" r="5"/>
      <circle class="cls-1" cx="2277.59" cy="1249.99" r="2.5"/>
      <circle class="cls-1" cx="2325.59" cy="1408.99" r="7.5"/>
      <circle class="cls-1" cx="2377.59" cy="1385.99" r="3.5"/>
      <circle class="cls-1" cx="2385.09" cy="1428.49" r="1"/>
      <circle class="cls-1" cx="2504.09" cy="1325.49" r="6"/>
      <circle class="cls-1" cx="2525.09" cy="1525.49" r="7"/>
      <circle class="cls-1" cx="2592.59" cy="1492.99" r="7.5"/>
      <circle class="cls-1" cx="2491.59" cy="1689.99" r="4.5"/>
      <circle class="cls-1" cx="2533.59" cy="1676.99" r="1.5"/>
      <circle class="cls-1" cx="2353.59" cy="1880.99" r="7.5"/>
      <circle class="cls-1" cx="2396.59" cy="1856.99" r="2.5"/>
      <circle class="cls-1" cx="2204.59" cy="1988.99" r="6.5"/>
      <circle class="cls-1" cx="2212.09" cy="1900.49" r="8"/>
      <circle class="cls-1" cx="2034.09" cy="2017.49" r="14"/>
      <circle class="cls-1" cx="2079.09" cy="1974.49" r="4"/>
      <circle class="cls-1" cx="2042.59" cy="1844.99" r="5.5"/>
      <circle class="cls-1" cx="2161.59" cy="1715.99" r="5.5"/>
      <circle class="cls-1" cx="2230.09" cy="1630.49" r="4"/>
      <circle class="cls-1" cx="1911.09" cy="1813.49" r="8"/>
    </g>
    <g>
      <path class="cls-1" d="m878.01,1006.38c-2.28,1.55-5.39.96-6.95-1.33-1.55-2.28-.96-5.39,1.33-6.95,2.28-1.55,5.39-.96,6.95,1.33s.96,5.39-1.33,6.95Z"/>
      <path class="cls-1" d="m788.15,1022.7c-1.6,1.09-3.78.67-4.86-.93-1.09-1.6-.67-3.78.93-4.86,1.6-1.09,3.78-.67,4.86.93,1.09,1.6.67,3.78-.93,4.86Z"/>
      <path class="cls-1" d="m827.36,1083.1c-.91.62-2.16.38-2.78-.53-.62-.91-.38-2.16.53-2.78.91-.62,2.16-.38,2.78.53.62.91.38,2.16-.53,2.78Z"/>
      <path class="cls-1" d="m772.77,1120.18c-.91.62-2.16.38-2.78-.53-.62-.91-.38-2.16.53-2.78.91-.62,2.16-.38,2.78.53s.38,2.16-.53,2.78Z"/>
      <path class="cls-1" d="m727.22,1272.02c-1.83,1.24-4.32.77-5.56-1.06s-.77-4.32,1.06-5.56c1.83-1.24,4.32-.77,5.56,1.06s.77,4.32-1.06,5.56Z"/>
      <path class="cls-1" d="m789.31,1284.24c-2.06,1.4-4.85.86-6.25-1.19-1.4-2.06-.86-4.85,1.19-6.25,2.06-1.4,4.85-.86,6.25,1.19,1.4,2.06.86,4.85-1.19,6.25Z"/>
      <path class="cls-1" d="m796.34,1215.39c-2.74,1.86-6.47,1.15-8.33-1.59-1.86-2.74-1.15-6.47,1.59-8.33,2.74-1.86,6.47-1.15,8.33,1.59,1.86,2.74,1.15,6.47-1.59,8.33Z"/>
      <path class="cls-1" d="m730.08,1377.67c-2.28,1.55-5.39.96-6.95-1.33-1.55-2.28-.96-5.39,1.33-6.95,2.28-1.55,5.39-.96,6.95,1.33s.96,5.39-1.33,6.95Z"/>
      <path class="cls-1" d="m789.14,1407.66c-2.74,1.86-6.47,1.15-8.33-1.59-1.86-2.74-1.15-6.47,1.59-8.33,2.74-1.86,6.47-1.15,8.33,1.59,1.86,2.74,1.15,6.47-1.59,8.33Z"/>
      <path class="cls-1" d="m624.22,1325.06c-1.37.93-3.24.57-4.17-.8-.93-1.37-.57-3.24.8-4.17,1.37-.93,3.24-.57,4.17.8.93,1.37.57,3.24-.8,4.17Z"/>
      <path class="cls-1" d="m460.69,1289.87c-1.14.78-2.7.48-3.47-.66-.78-1.14-.48-2.7.66-3.47,1.14-.78,2.7-.48,3.47.66.78,1.14.48,2.7-.66,3.47Z"/>
      <path class="cls-1" d="m556.69,1262.13c-2.97,2.02-7.01,1.25-9.03-1.72-2.02-2.97-1.25-7.01,1.72-9.03,2.97-2.02,7.01-1.25,9.03,1.72,2.02,2.97,1.25,7.01-1.72,9.03Z"/>
      <path class="cls-1" d="m422.63,1345.95c-1.6,1.09-3.78.67-4.86-.93-1.09-1.6-.67-3.78.93-4.86,1.6-1.09,3.78-.67,4.86.93,1.09,1.6.67,3.78-.93,4.86Z"/>
      <path class="cls-1" d="m430.12,1442.41c-1.6,1.09-3.78.67-4.86-.93-1.09-1.6-.67-3.78.93-4.86,1.6-1.09,3.78-.67,4.86.93,1.09,1.6.67,3.78-.93,4.86Z"/>
      <path class="cls-1" d="m502.59,1451.21c1.6-1.09,2.01-3.26.93-4.86-1.09-1.6-3.26-2.01-4.86-.93-1.6,1.09-2.01,3.26-.93,4.86,1.09,1.6,3.26,2.01,4.86.93Z"/>
      <path class="cls-1" d="m488.7,1384.49c-4.34,2.95-10.25,1.82-13.2-2.52-2.95-4.34-1.82-10.25,2.52-13.2,4.34-2.95,10.25-1.82,13.2,2.52,2.95,4.34,1.82,10.25-2.52,13.2Z"/>
      <path class="cls-1" d="m392.9,1292.4c-.91.62-2.16.38-2.78-.53-.62-.91-.38-2.16.53-2.78.91-.62,2.16-.38,2.78.53s.38,2.16-.53,2.78Z"/>
      <path class="cls-1" d="m449,1253.08c-1.6,1.09-3.78.67-4.86-.93-1.09-1.6-.67-3.78.93-4.86,1.6-1.09,3.78-.67,4.86.93,1.09,1.6.67,3.78-.93,4.86Z"/>
      <path class="cls-1" d="m315.46,1270.06c-.69.47-1.62.29-2.08-.4s-.29-1.62.4-2.08c.69-.47,1.62-.29,2.08.4.47.69.29,1.62-.4,2.08Z"/>
      <path class="cls-1" d="m459.9,1644.62c-5.25,3.57-12.41,2.2-15.97-3.05s-2.2-12.41,3.05-15.97c5.25-3.57,12.41-2.2,15.97,3.05,3.57,5.25,2.2,12.41-3.05,15.97Z"/>
      <path class="cls-1" d="m559.51,1633.77c-1.37.93-3.24.57-4.17-.8-.93-1.37-.57-3.24.8-4.17,1.37-.93,3.24-.57,4.17.8.93,1.37.57,3.24-.8,4.17Z"/>
      <path class="cls-1" d="m509.78,1703.82c-1.6,1.09-3.78.67-4.86-.93-1.09-1.6-.67-3.78.93-4.86,1.6-1.09,3.78-.67,4.86.93,1.09,1.6.67,3.78-.93,4.86Z"/>
      <path class="cls-1" d="m502.93,1602.09c-2.74,1.86-6.47,1.15-8.33-1.59-1.86-2.74-1.15-6.47,1.59-8.33,2.74-1.86,6.47-1.15,8.33,1.59s1.15,6.47-1.59,8.33Z"/>
      <path class="cls-1" d="m420.51,1596.43c-2.74,1.86-6.47,1.15-8.33-1.59-1.86-2.74-1.15-6.47,1.59-8.33,2.74-1.86,6.47-1.15,8.33,1.59,1.86,2.74,1.15,6.47-1.59,8.33Z"/>
      <circle class="cls-1" cx="468.4" cy="1824.42" r="14.5" transform="translate(-1254.23 1062.53) rotate(-51.74)"/>
      <path class="cls-1" d="m642.74,1827.48c-2.28,1.55-5.39.96-6.95-1.33-1.55-2.28-.96-5.39,1.33-6.95,2.28-1.55,5.39-.96,6.95,1.33,1.55,2.28.96,5.39-1.33,6.95Z"/>
      <path class="cls-1" d="m643.49,1897.09c-.69.47-1.62.29-2.08-.4s-.29-1.62.4-2.08c.69-.47,1.62-.29,2.08.4.47.69.29,1.62-.4,2.08Z"/>
      <circle class="cls-1" cx="770.91" cy="1910.26" r="15.5" transform="translate(-1270.92 1637.65) rotate(-60.42)"/>
      <path class="cls-1" d="m1012.69,1597.93c-4.11,2.79-9.71,1.72-12.5-2.39-2.79-4.11-1.72-9.71,2.39-12.5s9.71-1.72,12.5,2.39c2.79,4.11,1.72,9.71-2.39,12.5Z"/>
      <circle class="cls-1" cx="1140.16" cy="1616.51" r="7" transform="translate(-783.79 1156.64) rotate(-41.36)"/>
      <path class="cls-1" d="m1108.2,1482.27c-2.74,1.86-6.47,1.15-8.33-1.59-1.86-2.74-1.15-6.47,1.59-8.33,2.74-1.86,6.47-1.15,8.33,1.59,1.86,2.74,1.15,6.47-1.59,8.33Z"/>
      <path class="cls-1" d="m1123.25,1267.74c-.91.62-2.16.38-2.78-.53s-.38-2.16.53-2.78c.91-.62,2.16-.38,2.78.53.62.91.38,2.16-.53,2.78Z"/>
      <path class="cls-1" d="m1090.62,1199.24c-1.14.78-2.7.48-3.47-.66-.78-1.14-.48-2.7.66-3.47,1.14-.78,2.7-.48,3.47.66.78,1.14.48,2.7-.66,3.47Z"/>
      <path class="cls-1" d="m1142.26,1173.82c-2.97,2.02-7.01,1.25-9.03-1.72-2.02-2.97-1.25-7.01,1.72-9.03,2.97-2.02,7.01-1.25,9.03,1.72s1.25,7.01-1.72,9.03Z"/>
      <path class="cls-1" d="m1062.46,1150.67c-1.6,1.09-3.78.67-4.86-.93-1.09-1.6-.67-3.78.93-4.86,1.6-1.09,3.78-.67,4.86.93,1.09,1.6.67,3.78-.93,4.86Z"/>
      <path class="cls-1" d="m1018.24,1248.4c-1.83,1.24-4.31.77-5.56-1.06-1.24-1.83-.77-4.32,1.06-5.56,1.83-1.24,4.32-.77,5.56,1.06,1.24,1.83.77,4.31-1.06,5.56Z"/>
      <path class="cls-1" d="m1047.27,1269.79c-1.37.93-3.24.57-4.17-.8s-.57-3.24.8-4.17c1.37-.93,3.24-.57,4.17.8.93,1.37.57,3.24-.8,4.17Z"/>
      <path class="cls-1" d="m982.43,1324.71c-3.43,2.33-8.09,1.44-10.42-1.99-2.33-3.43-1.44-8.09,1.99-10.42,3.43-2.33,8.09-1.44,10.42,1.99,2.33,3.43,1.44,8.09-1.99,10.42Z"/>
      <path class="cls-1" d="m1031.59,1348.14c-.91.62-2.16.38-2.78-.53-.62-.91-.38-2.16.53-2.78.91-.62,2.16-.38,2.78.53.62.91.38,2.16-.53,2.78Z"/>
      <path class="cls-1" d="m1319.2,1346.19c-2.74,1.86-6.47,1.15-8.33-1.59-1.86-2.74-1.15-6.47,1.59-8.33,2.74-1.86,6.47-1.15,8.33,1.59,1.86,2.74,1.15,6.47-1.59,8.33Z"/>
      <path class="cls-1" d="m1378.1,1422.23c-2.28,1.55-5.39.96-6.95-1.33s-.96-5.39,1.33-6.95c2.28-1.55,5.39-.96,6.95,1.33,1.55,2.28.96,5.39-1.33,6.95Z"/>
      <path class="cls-1" d="m1286.6,1567.81c-.69.47-1.62.29-2.08-.4-.47-.69-.29-1.62.4-2.08.69-.47,1.62-.29,2.08.4.47.69.29,1.62-.4,2.08Z"/>
      <path class="cls-1" d="m1393.38,1583.52c-.91.62-2.16.38-2.78-.53-.62-.91-.38-2.16.53-2.78s2.16-.38,2.78.53c.62.91.38,2.16-.53,2.78Z"/>
      <path class="cls-1" d="m1263.31,1744.41c-1.83,1.24-4.32.77-5.56-1.06-1.24-1.83-.77-4.32,1.06-5.56,1.83-1.24,4.32-.77,5.56,1.06,1.24,1.83.77,4.32-1.06,5.56Z"/>
      <path class="cls-1" d="m1289.62,1755.55c-1.6,1.09-3.78.67-4.86-.93-1.09-1.6-.67-3.78.93-4.86,1.6-1.09,3.78-.67,4.86.93,1.09,1.6.67,3.78-.93,4.86Z"/>
      <path class="cls-1" d="m1141.23,1867.23c-2.74,1.86-6.47,1.15-8.33-1.59-1.86-2.74-1.15-6.47,1.59-8.33,2.74-1.86,6.47-1.15,8.33,1.59,1.86,2.74,1.15,6.47-1.59,8.33Z"/>
      <path class="cls-1" d="m1175.69,1875.26c-1.37.93-3.24.57-4.17-.8-.93-1.37-.57-3.24.8-4.17s3.24-.57,4.17.8c.93,1.37.57,3.24-.8,4.17Z"/>
      <path class="cls-1" d="m1002.8,1911.71c-3.43,2.33-8.09,1.44-10.42-1.99-2.33-3.43-1.44-8.09,1.99-10.42,3.43-2.33,8.09-1.44,10.42,1.99s1.44,8.09-1.99,10.42Z"/>
      <path class="cls-1" d="m1031.38,1865.69c-2.28,1.55-5.39.96-6.95-1.33s-.96-5.39,1.33-6.95,5.39-.96,6.95,1.33.96,5.39-1.33,6.95Z"/>
      <path class="cls-1" d="m999.53,1823.26c-1.14.78-2.7.48-3.47-.66-.78-1.14-.48-2.7.66-3.47,1.14-.78,2.7-.48,3.47.66.78,1.14.48,2.7-.66,3.47Z"/>
      <path class="cls-1" d="m897.79,1956.45c-3.43,2.33-8.09,1.44-10.42-1.99-2.33-3.43-1.44-8.09,1.99-10.42,3.43-2.33,8.09-1.44,10.42,1.99,2.33,3.43,1.44,8.09-1.99,10.42Z"/>
      <path class="cls-1" d="m943.79,1983.23c1.6-1.09,2.01-3.26.93-4.86-1.09-1.6-3.26-2.01-4.86-.93-1.6,1.09-2.01,3.26-.93,4.86,1.09,1.6,3.26,2.01,4.86.93Z"/>
      <path class="cls-1" d="m911.44,2011.24c-.46.31-1.08.19-1.39-.27-.31-.46-.19-1.08.27-1.39.46-.31,1.08-.19,1.39.27.31.46.19,1.08-.27,1.39Z"/>
      <path class="cls-1" d="m1066.32,2055.94c-2.74,1.86-6.47,1.15-8.33-1.59-1.86-2.74-1.15-6.47,1.59-8.33,2.74-1.86,6.47-1.15,8.33,1.59,1.86,2.74,1.15,6.47-1.59,8.33Z"/>
      <circle class="cls-1" cx="909.31" cy="2180.73" r="7" transform="translate(-1214.21 1144.84) rotate(-41.36)"/>
      <path class="cls-1" d="m978.34,2224.51c-3.43,2.33-8.09,1.44-10.42-1.99-2.33-3.43-1.44-8.09,1.99-10.42,3.43-2.33,8.09-1.44,10.42,1.99,2.33,3.43,1.44,8.09-1.99,10.42Z"/>
      <path class="cls-1" d="m756.95,2249.18c-2.06,1.4-4.85.86-6.25-1.19-1.4-2.06-.86-4.85,1.19-6.25,2.06-1.4,4.85-.86,6.25,1.19,1.4,2.06.86,4.85-1.19,6.25Z"/>
      <path class="cls-1" d="m789.61,2274.13c-.69.47-1.62.29-2.08-.4-.47-.69-.29-1.62.4-2.08.69-.47,1.62-.29,2.08.4s.29,1.62-.4,2.08Z"/>
      <path class="cls-1" d="m523.09,2244.84c-3.43,2.33-8.09,1.44-10.42-1.99-2.33-3.43-1.44-8.09,1.99-10.42s8.09-1.44,10.42,1.99c2.33,3.43,1.44,8.09-1.99,10.42Z"/>
      <path class="cls-1" d="m564.3,2262.78c-1.14.78-2.7.48-3.47-.66-.78-1.14-.48-2.7.66-3.47,1.14-.78,2.7-.48,3.47.66.78,1.14.48,2.7-.66,3.47Z"/>
      <path class="cls-1" d="m349.47,2181.45c-2.97,2.02-7.01,1.25-9.03-1.72-2.02-2.97-1.25-7.01,1.72-9.03,2.97-2.02,7.01-1.25,9.03,1.72,2.02,2.97,1.25,7.01-1.72,9.03Z"/>
      <path class="cls-1" d="m427.73,2139.16c-3.65,2.48-8.63,1.53-11.11-2.12-2.48-3.65-1.53-8.63,2.12-11.11,3.65-2.48,8.63-1.53,11.11,2.12,2.48,3.65,1.53,8.63-2.12,11.11Z"/>
      <circle class="cls-1" cx="226.43" cy="2051.05" r="14" transform="translate(-1830.68 1888.75) rotate(-79.19)"/>
      <path class="cls-1" d="m289.54,2067.42c-1.83,1.24-4.32.77-5.56-1.06s-.77-4.32,1.06-5.56c1.83-1.24,4.32-.77,5.56,1.06,1.24,1.83.77,4.32-1.06,5.56Z"/>
      <path class="cls-1" d="m376.99,1965.7c-2.51,1.71-5.93,1.05-7.64-1.46-1.71-2.51-1.05-5.93,1.46-7.64,2.51-1.71,5.93-1.05,7.64,1.46,1.71,2.51,1.05,5.93-1.46,7.64Z"/>
      <path class="cls-1" d="m550.57,1991.64c-2.51,1.71-5.93,1.05-7.64-1.46-1.71-2.51-1.05-5.93,1.46-7.64,2.51-1.71,5.93-1.05,7.64,1.46,1.71,2.51,1.05,5.93-1.46,7.64Z"/>
      <path class="cls-1" d="m658.94,1999.02c-1.83,1.24-4.32.77-5.56-1.06s-.77-4.32,1.06-5.56c1.83-1.24,4.31-.77,5.56,1.06s.77,4.32-1.06,5.56Z"/>
      <path class="cls-1" d="m330.56,1841.29c-3.65,2.48-8.63,1.53-11.11-2.12-2.48-3.65-1.53-8.63,2.12-11.11,3.65-2.48,8.63-1.53,11.11,2.12,2.48,3.65,1.53,8.63-2.12,11.11Z"/>
    </g>
    <g>
      <circle class="cls-1" cx="1897.09" cy="638.49" r="5"/>
      <circle class="cls-1" cx="1861.59" cy="721.99" r="3.5"/>
      <circle class="cls-1" cx="1935.09" cy="723.49" r="2"/>
      <circle class="cls-1" cx="1935.09" cy="789.49" r="2"/>
      <circle class="cls-1" cx="2033.09" cy="912.49" r="4"/>
      <circle class="cls-1" cx="2077.59" cy="867.99" r="4.5"/>
      <circle class="cls-1" cx="2023.09" cy="823.49" r="6"/>
      <circle class="cls-1" cx="2121.09" cy="969.49" r="5"/>
      <circle class="cls-1" cx="2178.09" cy="937.49" r="6"/>
      <circle class="cls-1" cx="2020.09" cy="1027.49" r="3"/>
      <circle class="cls-1" cx="1899.59" cy="1142.99" r="2.5"/>
      <circle class="cls-1" cx="1926.59" cy="1047.99" r="6.5"/>
      <circle class="cls-1" cx="1923.59" cy="1205.99" r="3.5"/>
      <circle class="cls-1" cx="2007.59" cy="1253.99" r="3.5"/>
      <circle class="cls-1" cx="2055.59" cy="1198.99" r="3.5"/>
      <circle class="cls-1" cx="1986.59" cy="1172.99" r="9.5"/>
      <circle class="cls-1" cx="1864.09" cy="1200.49" r="2"/>
      <circle class="cls-1" cx="1861.59" cy="1131.99" r="3.5"/>
      <circle class="cls-1" cx="1802.59" cy="1251.99" r="1.5"/>
      <circle class="cls-1" cx="2183.59" cy="1342.99" r="11.5"/>
      <circle class="cls-1" cx="2239.09" cy="1254.49" r="3"/>
      <circle class="cls-1" cx="2268.59" cy="1334.99" r="3.5"/>
      <circle class="cls-1" cx="2178.09" cy="1283.49" r="6"/>
      <circle class="cls-1" cx="2127.09" cy="1348.49" r="6"/>
      <circle class="cls-1" cx="2348.59" cy="1436.99" r="14.5"/>
      <circle class="cls-1" cx="2444.09" cy="1294.49" r="5"/>
      <circle class="cls-1" cx="2505.59" cy="1332.99" r="1.5"/>
      <circle class="cls-1" cx="2589.59" cy="1234.99" r="15.5"/>
      <circle class="cls-1" cx="2458.09" cy="859.49" r="9"/>
      <circle class="cls-1" cx="2554.09" cy="764.49" r="7"/>
      <circle class="cls-1" cx="2419.09" cy="715.49" r="6"/>
      <circle class="cls-1" cx="2254.09" cy="582.49" r="2"/>
      <circle class="cls-1" cx="2178.59" cy="570.99" r="2.5"/>
      <circle class="cls-1" cx="2182.59" cy="513.99" r="6.5"/>
      <circle class="cls-1" cx="2121.59" cy="566.99" r="3.5"/>
      <circle class="cls-1" cx="2177.09" cy="658.49" r="4"/>
      <circle class="cls-1" cx="2212.09" cy="646.49" r="3"/>
      <circle class="cls-1" cx="2216.59" cy="730.99" r="7.5"/>
      <circle class="cls-1" cx="2269.09" cy="703.49" r="2"/>
      <circle class="cls-1" cx="2425.09" cy="464.49" r="6"/>
      <circle class="cls-1" cx="2522.09" cy="458.49" r="5"/>
      <circle class="cls-1" cx="2594.59" cy="615.99" r="1.5"/>
      <circle class="cls-1" cx="2667.09" cy="536.49" r="2"/>
      <circle class="cls-1" cx="2725.09" cy="734.49" r="4"/>
      <circle class="cls-1" cx="2749.59" cy="718.99" r="3.5"/>
      <circle class="cls-1" cx="2756.09" cy="904.49" r="6"/>
      <circle class="cls-1" cx="2785.09" cy="880.49" r="3"/>
      <circle class="cls-1" cx="2713.59" cy="1043.99" r="7.5"/>
      <circle class="cls-1" cx="2694.09" cy="994.49" r="5"/>
      <circle class="cls-1" cx="2643.59" cy="996.99" r="2.5"/>
      <circle class="cls-1" cx="2691.59" cy="1155.99" r="7.5"/>
      <circle class="cls-1" cx="2743.59" cy="1132.99" r="3.5"/>
      <circle class="cls-1" cx="2751.09" cy="1175.49" r="1"/>
      <circle class="cls-1" cx="2870.09" cy="1072.49" r="6"/>
      <circle class="cls-1" cx="2891.09" cy="1272.49" r="7"/>
      <circle class="cls-1" cx="2958.59" cy="1239.99" r="7.5"/>
      <circle class="cls-1" cx="2857.59" cy="1436.99" r="4.5"/>
      <circle class="cls-1" cx="2899.59" cy="1423.99" r="1.5"/>
      <circle class="cls-1" cx="2719.59" cy="1627.99" r="7.5"/>
      <circle class="cls-1" cx="2762.59" cy="1603.99" r="2.5"/>
      <circle class="cls-1" cx="2570.59" cy="1735.99" r="6.5"/>
      <circle class="cls-1" cx="2578.09" cy="1647.49" r="8"/>
      <circle class="cls-1" cx="2400.09" cy="1764.49" r="14"/>
      <circle class="cls-1" cx="2445.09" cy="1721.49" r="4"/>
      <circle class="cls-1" cx="2408.59" cy="1591.99" r="5.5"/>
      <circle class="cls-1" cx="2527.59" cy="1462.99" r="5.5"/>
      <circle class="cls-1" cx="2596.09" cy="1377.49" r="4"/>
      <circle class="cls-1" cx="2277.09" cy="1560.49" r="8"/>
    </g>
    <polygon class="cls-1" points="476.09 1834.44 517.09 1829.68 476.14 1830.31 493.85 1810.52 475.49 1829.69 471.41 1789 471.41 1829.73 452.61 1811.5 470.31 1830.73 430.09 1835.39 470.96 1834.76 453.67 1855.43 471.68 1835.29 475.78 1876.07 475.78 1836.26 494.9 1854.44 476.09 1834.44"/>
    <polygon class="cls-1" points="786.09 1402.44 827.09 1397.68 786.14 1398.31 803.85 1378.52 785.49 1397.69 781.41 1357 781.41 1397.73 762.61 1379.5 780.31 1398.73 740.09 1403.39 780.96 1402.76 763.67 1423.43 781.68 1403.29 785.78 1444.07 785.78 1404.26 804.9 1422.44 786.09 1402.44"/>
    <polygon class="cls-1" points="1854.09 904.44 1895.09 899.68 1854.14 900.31 1871.85 880.52 1853.49 899.69 1849.41 859 1849.41 899.73 1830.61 881.5 1848.31 900.73 1808.09 905.39 1848.96 904.76 1831.67 925.43 1849.68 905.29 1853.78 946.07 1853.78 906.26 1872.9 924.44 1854.09 904.44"/>
    <polygon class="cls-1" points="665.09 2002.44 706.09 1997.68 665.14 1998.31 682.85 1978.52 664.49 1997.69 660.41 1957 660.41 1997.73 641.61 1979.5 659.31 1998.73 619.09 2003.39 659.96 2002.76 642.67 2023.43 660.68 2003.29 664.78 2044.07 664.78 2004.26 683.9 2022.44 665.09 2002.44"/>
  </g>
</svg>