<?xml version="1.0" encoding="UTF-8"?>
<svg id="Layer_1" data-name="Layer 1" xmlns="http://www.w3.org/2000/svg" xmlns:xlink="http://www.w3.org/1999/xlink" viewBox="0 0 4248.94 2526.79">
  <defs>
    <style>
      .cls-1 {
        fill: #fff;
      }

      .cls-2 {
        fill: #15151c;
      }

      .cls-3 {
        fill: #22222d;
      }

      .cls-4 {
        fill: #09090a;
      }

      .cls-5, .cls-6 {
        fill: none;
      }

      .cls-6 {
        clip-path: url(#clippath);
      }
    </style>
    <clipPath id="clippath">
      <rect class="cls-5" x="872.91" y="254.62" width="2880" height="1800"/>
    </clipPath>
  </defs>
  <g class="cls-6">
    <path class="cls-4" d="m2505.33,351.55c-50.66-67.26-110.72-129.24-184.65-169.56-87.81-47.88-189.46-62.43-288.86-73.51-376.59-41.99-757.43-45.79-1134.79-11.34-29.95,2.73-61.16,6.14-86.45,22.41-48.74,31.37-58.51,97.29-63.55,155.03-44.02,504.7-85.01,1011.16-65.14,1517.39,5.47,139.47,17.18,284.32,86.85,405.26,22.18,38.5,51.31,74.95,91.27,94.39,39.4,19.17,85.09,19.85,128.82,17.13,223.59-13.91,433.67-105.48,646.87-174.28,75.6-24.4,153.09-46.47,220.81-88,57.28-35.13,105.72-83.14,148.4-135.04,65.91-80.13,119.93-172.11,143.23-273.21,31.52-136.73,5.29-279.09-2.45-419.19-13.99-253.15,34.16-509.5,139.03-740.32"/>
    <path class="cls-2" d="m2292.44,120.94c-215.53-2.06-436.13,1.52-638.43,75.9-114.28,42.02-219.77,105.68-334.71,145.84-109.78,38.35-225.86,54.47-338.81,82.1-182.49,44.65-359.36,121.01-504.94,239.77-145.58,118.76-258.36,281.99-298.89,465.44-5.66,25.61-9.89,52.49-3.26,77.87,14.94,57.24,77.4,86.47,133.72,104.59,265.02,85.29,548.81,93.23,818.63,161.84,101.88,25.91,205.92,63.16,277.72,139.95,17.33,18.53,33.21,45.35,21.56,67.88-6.2,12-18.76,19.19-30.95,25.02-78.64,37.61-167.71,45.87-254.7,51.36-351.26,22.17-725.42,14.34-1024.57,199.76-64.29,39.85-130.37,106.39-111.53,179.65,12.75,49.58,60.82,81.45,108.07,101.15,92.12,38.4,193.37,48.56,293.07,53.18,220.32,10.2,440.95-4.57,661.01-19.34,228.12-15.31,457.26-30.76,680.55-79.91,87.81-19.33,175.7-44.35,252.7-90.76,77-46.42,142.83-116.63,168.21-202.89,36.92-125.49-15.4-257.33-51.32-383.11-49.07-171.82-67.34-358.59-9.53-527.66,88-257.37,336.08-434.46,426.95-690.83,13.02-36.72,22.49-77.69,8.53-114.06-18.22-47.46-70.33-72.31-119.62-84.76-49.29-12.46-102.09-17.89-144.53-45.89"/>
    <path class="cls-4" d="m2785.75,123.45c-103.39,38.95-203.82,85.76-300.14,139.88-114.71,64.45-236.83,164.4-227.83,295.67,2.13,31.12,11.9,62.08,7.58,92.97-7.27,52.03-51.73,89.91-94.33,120.65-212.47,153.33-470.26,273.38-588.17,507.36-35.2,69.85-55.79,148.95-46.25,226.59,8.2,66.69,38.11,130.13,39.08,197.31,1.88,131.29-103.63,236.87-149.62,359.86-13.47,36.01-21.87,75.39-13.49,112.92,16.95,75.96,95.39,121,169.79,143.86,220.26,67.67,457.99,22.38,687.46,43.18,214.02,19.4,418.46,96.15,629.88,134.68,357.85,65.22,735.45,17.38,1065.73-135.01,132.7-61.23,272.21-160.94,282.88-306.69,8.25-112.67-66.34-216.25-155.38-285.78-89.04-69.53-194.29-115.59-285.32-182.5-130.19-95.68-228.46-234.05-275.9-388.49-73.72-239.96-24.9-500.42-65.96-748.07-11.36-68.5-30.21-137.21-68.87-194.88-96.06-143.29-284.99-184.24-455.01-213.46"/>
    <path class="cls-2" d="m3013.42,190.19c-93.48,47.91-199.99,69.41-287.7,127.2-87.71,57.79-153.34,173.42-106.52,267.45,43.59,87.54,170.22,130.5,173.1,228.26,1.27,43.01-24.72,83.01-58,110.28-33.28,27.27-73.54,44.27-112.39,62.75-113.55,54.01-219.69,123.58-314.52,206.14-62.65,54.55-125.29,136.47-93.16,213.07,20.42,48.68,72.66,75.16,122.25,93.27,111.17,40.6,230.14,59.71,348.43,55.97,80.83-2.56,176-10.01,227.42,52.41,58.76,71.31,17.15,184.12,58.66,266.67,41.41,82.36,148.14,104.85,240.33,104.98,92.19.12,191.6-10.63,269.79,38.21,62.13,38.81,98.19,108.25,153.93,155.79,67.13,57.25,159.37,78.74,247.48,74.13,88.1-4.61,173.19-33.09,254.97-66.19,29.92-12.11,61.42-26.4,78.45-53.82,24.53-39.5,10.54-90.52-3.18-134.94-57.53-186.27-98.23-379.17-100.34-574.11-3.39-312.57,92.06-618.73,102.72-931.14,2.56-74.93-.55-153.14-35.54-219.45-40.81-77.36-119.63-127.71-200.82-160.22-97.93-39.21-204.18-57.47-309.58-53.21-213.13,8.62-415.03,107.25-628.19,114.78"/>
    <path class="cls-3" d="m3412.95,151.01c-163.22,48.44-322.94,108.69-477.48,180.13-35.98,16.63-72.47,34.42-100.26,62.69-27.79,28.27-45.68,69.38-36.32,107.89,3.94,16.22,12.36,30.94,20.67,45.42l54.76,95.38c22.11,38.5,44.59,78.01,52.29,121.73,15.35,87.14-30.9,174.01-89.41,240.39-58.5,66.38-130.48,120.57-183.88,191.12-20.89,27.61-39.48,60.74-34.53,95,4.75,32.9,30.28,59.01,57.77,77.69,72.78,49.46,163.4,62.23,249.64,79.75,86.24,17.52,176.89,44.5,233.34,112.01,33.3,39.83,51.35,90.1,80.45,133.1,67.4,99.58,186.92,150.46,303.93,178.16,190.06,44.98,403.66,38.19,563.83-73.59,30.59-21.35,61.37-52.1,58.5-89.29-1.3-16.82-9.54-32.33-19.13-46.21-61.81-89.46-181.72-129.59-231.98-226.01-26.21-50.3-30.39-111.17-63.62-157.14-30.27-41.87-80.88-65.09-131.74-74.18-50.86-9.09-102.99-5.78-154.65-4.69-89.66,1.89-179.46-3.03-268.37-14.68-44.49-5.83-89.61-13.62-129.48-34.22-39.87-20.59-74.29-56.02-83.48-99.95-13.07-62.48,25.62-122.4,46.54-182.71,32.9-94.81,20.6-204.23-32.54-289.37-27.95-44.79-67.83-98.84-40.32-143.91,10.22-16.75,27.95-27.27,45.33-36.36,181.19-94.81,406.82-111.72,553.3-254.41,23.11-22.51,45.01-53.5,36.33-84.57-66.48-13.24-135.59-13.15-202.04.25"/>
    <path class="cls-3" d="m2164.85,107.15c-78.73,20.36-160.24,42.1-222.94,93.89-47.71,39.41-81.67,94.11-132.08,130-52.07,37.07-116.7,50.67-179.11,64.46-373.7,82.58-741.68,203.69-1073.66,394.1-64.58,37.04-129.26,78.05-173.72,137.76-25.69,34.5-44.29,78.59-33.17,120.15,18.89,70.6,106.5,93.41,179.32,99.6,109.42,9.31,219.45,9.31,329.2,5.55,68.52-2.35,152.57,2.41,183.14,63.77,16.35,32.82,12.91,76.31,40.13,100.87,14.43,13.02,34.61,17.5,53.98,19.04,71.24,5.66,144.43-23.94,191.7-77.54,34.13-38.69,51.95-103.95,13.79-138.66-13.46-12.24-31.38-18.07-48.72-23.58-54.96-17.45-109.91-34.9-164.87-52.35-33.99-10.79-70.77-23.68-89.69-53.91-18.34-29.31-14.28-68.78,3.23-98.59,17.51-29.81,46.43-51.26,76.77-67.83,106.38-58.08,236.11-65.12,338.31-130.27,45.39-28.94,83.75-68.46,131.22-93.84,136.41-72.93,313.4-13.86,452.95-80.6,56.57-27.06,101.82-72.59,145.86-117.24,81.74-82.88,163.48-165.77,245.22-248.65,34.74-35.22,71.29-89.8,40.91-128.85-21.37-27.46-62.53-26.45-97.05-22.1-86.48,10.89-172.36,26.56-257.11,46.91"/>
    <path class="cls-3" d="m708.69,1969.11c79.33,12.29,162.73-3.48,232.1-43.88,29.82-17.37,57.14-39.12,88.4-53.75,62.83-29.41,135.2-27.48,204.53-24.96,36.16,1.31,82.74,11.55,87.16,47.46,3.44,27.92-23.32,50.09-49.15,61.22-103.44,44.58-230.82,7.86-329.56,62.04-43.58,23.91-76.46,63.08-115.63,93.69-74.74,58.41-174.07,84.24-267.79,69.64-50.25-7.83-105.51-34.35-115.82-84.15"/>
    <circle class="cls-1" cx="1164.91" cy="576.62" r="6"/>
    <circle class="cls-1" cx="1228.41" cy="317.12" r="8.5"/>
    <circle class="cls-1" cx="1210.41" cy="440.12" r="9.5"/>
    <circle class="cls-1" cx="1438.41" cy="367.12" r="5.5"/>
    <circle class="cls-1" cx="1412.41" cy="642.12" r="3.5"/>
    <circle class="cls-1" cx="1825.91" cy="1152.62" r="2"/>
    <circle class="cls-1" cx="1810.41" cy="1484.12" r="13.5"/>
    <circle class="cls-1" cx="1947.41" cy="1647.12" r="5.5"/>
    <circle class="cls-1" cx="1771.41" cy="1673.12" r="4.5"/>
    <circle class="cls-1" cx="1693.91" cy="1649.62" r="3"/>
    <circle class="cls-1" cx="2207.91" cy="2024.62" r="10"/>
    <circle class="cls-1" cx="2332.91" cy="1885.62" r="5"/>
    <circle class="cls-1" cx="2233.91" cy="1754.62" r="2"/>
    <circle class="cls-1" cx="2399.41" cy="1611.12" r="3.5"/>
    <circle class="cls-1" cx="2635.41" cy="1675.12" r="2.5"/>
    <circle class="cls-1" cx="2660.41" cy="1820.12" r="5.5"/>
    <circle class="cls-1" cx="2787.41" cy="1711.12" r="4.5"/>
    <circle class="cls-1" cx="2575.41" cy="1385.12" r="5.5"/>
    <circle class="cls-1" cx="2524.41" cy="1215.12" r="3.5"/>
    <circle class="cls-1" cx="2737.41" cy="1021.12" r="2.5"/>
    <circle class="cls-1" cx="2440.91" cy="858.62" r="11"/>
    <circle class="cls-1" cx="2245.91" cy="1028.62" r="10"/>
    <circle class="cls-1" cx="2543.91" cy="649.62" r="4"/>
    <circle class="cls-1" cx="2106.91" cy="643.62" r="2"/>
    <circle class="cls-1" cx="1718.41" cy="785.12" r="7.5"/>
    <circle class="cls-1" cx="1490.91" cy="831.62" r="7"/>
    <circle class="cls-1" cx="1402.91" cy="1260.62" r="3"/>
    <circle class="cls-1" cx="1229.91" cy="1162.62" r="10"/>
    <circle class="cls-1" cx="1161.91" cy="889.62" r="3"/>
    <circle class="cls-1" cx="943.91" cy="762.62" r="4"/>
    <circle class="cls-1" cx="1063.41" cy="1602.12" r="5.5"/>
    <circle class="cls-1" cx="1066.41" cy="1507.12" r="2.5"/>
    <circle class="cls-1" cx="999.41" cy="1318.12" r="4.5"/>
    <circle class="cls-1" cx="950.91" cy="1593.62" r="3"/>
    <circle class="cls-1" cx="1224.91" cy="1673.62" r="5"/>
    <circle class="cls-1" cx="1205.91" cy="1932.62" r="3"/>
    <circle class="cls-1" cx="1049.91" cy="1867.62" r="3"/>
    <circle class="cls-1" cx="1570.41" cy="1973.12" r="8.5"/>
    <circle class="cls-1" cx="1442.41" cy="1820.12" r="5.5"/>
    <circle class="cls-1" cx="1949.41" cy="1387.12" r="7.5"/>
    <circle class="cls-1" cx="2835.41" cy="1181.12" r="6.5"/>
    <circle class="cls-1" cx="3370.41" cy="760.12" r="11.5"/>
    <circle class="cls-1" cx="3428.41" cy="607.12" r="10.5"/>
    <circle class="cls-1" cx="3087.41" cy="635.12" r="10.5"/>
    <circle class="cls-1" cx="3236.41" cy="476.12" r="7.5"/>
    <circle class="cls-1" cx="2925.91" cy="423.62" r="4"/>
    <circle class="cls-1" cx="2630.91" cy="381.62" r="2"/>
    <circle class="cls-1" cx="2524.41" cy="349.12" r="3.5"/>
    <circle class="cls-1" cx="2290.91" cy="398.62" r="6"/>
    <circle class="cls-1" cx="2134.41" cy="358.12" r="8.5"/>
    <circle class="cls-1" cx="1873.91" cy="421.62" r="9"/>
    <circle class="cls-1" cx="1688.41" cy="305.12" r="3.5"/>
    <circle class="cls-1" cx="1737.91" cy="499.62" r="6"/>
    <circle class="cls-1" cx="1917.91" cy="702.62" r="10"/>
    <circle class="cls-1" cx="2069.41" cy="1124.12" r="5.5"/>
    <circle class="cls-1" cx="2427.91" cy="1375.62" r="9"/>
    <circle class="cls-1" cx="2839.91" cy="1325.62" r="11"/>
    <circle class="cls-1" cx="3090.41" cy="1608.12" r="13.5"/>
    <circle class="cls-1" cx="3386.91" cy="1626.62" r="5"/>
    <circle class="cls-1" cx="3274.91" cy="1334.62" r="20"/>
    <circle class="cls-1" cx="3202.41" cy="1836.12" r="15.5"/>
    <circle class="cls-1" cx="3525.91" cy="1738.62" r="5"/>
    <circle class="cls-1" cx="3511.91" cy="1095.62" r="10"/>
    <path class="cls-1" d="m2256.22,1032.69c21.62-.02,45.85-.45,70.13-1.7,0,0-29.4-2.22-70.12-2.42,9.16-9.23,19.12-19.76,28.7-30.85,0,0-13.12,11.83-30.51,29.03-.02-21.61-.45-45.84-1.7-70.12,0,0-2.22,29.4-2.42,70.12-9.23-9.16-19.76-19.12-30.85-28.7,0,0,11.83,13.12,29.03,30.51-21.51.03-45.69.65-70.13,2.44,0,0,29.57,1.53,70.12,1.69-9.22,9.26-19.27,19.71-29.02,30.52,0,0,13.34-11.47,30.84-28.71.03,21.51.65,45.7,2.44,70.13,0,0,1.53-29.57,1.68-70.12,9.26,9.22,19.71,19.27,30.52,29.02,0,0-11.47-13.34-28.71-30.83Z"/>
    <path class="cls-1" d="m1227.22,1166.69c21.62-.02,45.85-.45,70.13-1.7,0,0-29.4-2.22-70.12-2.42,9.16-9.23,19.11-19.76,28.7-30.85,0,0-13.12,11.83-30.51,29.03-.02-21.61-.45-45.84-1.7-70.12,0,0-2.22,29.4-2.42,70.12-9.23-9.16-19.76-19.12-30.85-28.7,0,0,11.83,13.12,29.03,30.51-21.51.03-45.69.65-70.13,2.44,0,0,29.57,1.53,70.12,1.69-9.22,9.26-19.27,19.71-29.02,30.52,0,0,13.34-11.47,30.84-28.71.03,21.51.65,45.7,2.44,70.13,0,0,1.53-29.57,1.68-70.12,9.26,9.22,19.71,19.27,30.52,29.02,0,0-11.47-13.34-28.71-30.83Z"/>
    <path class="cls-1" d="m1932.22,714.69c21.62-.02,45.85-.45,70.13-1.7,0,0-29.4-2.22-70.12-2.42,9.16-9.23,19.12-19.76,28.7-30.85,0,0-13.12,11.83-30.51,29.03-.02-21.61-.45-45.84-1.7-70.12,0,0-2.22,29.4-2.42,70.12-9.23-9.16-19.76-19.12-30.85-28.7,0,0,11.83,13.12,29.03,30.51-21.51.03-45.69.65-70.13,2.44,0,0,29.57,1.53,70.12,1.69-9.22,9.26-19.27,19.71-29.02,30.52,0,0,13.34-11.47,30.84-28.71.03,21.51.65,45.7,2.44,70.13,0,0,1.53-29.57,1.68-70.12,9.26,9.22,19.71,19.27,30.52,29.02,0,0-11.47-13.34-28.71-30.83Z"/>
  </g>
</svg>