<svg id="visual" viewBox="0 0 960 200" width="960" height="200" xmlns="http://www.w3.org/2000/svg" xmlns:xlink="http://www.w3.org/1999/xlink" version="1.1"><path d="M0 23L14.5 21.3C29 19.7 58 16.3 87.2 15.3C116.3 14.3 145.7 15.7 174.8 17.7C204 19.7 233 22.3 262 22.3C291 22.3 320 19.7 349 20C378 20.3 407 23.7 436.2 23.3C465.3 23 494.7 19 523.8 17.7C553 16.3 582 17.7 611 19.3C640 21 669 23 698 24.3C727 25.7 756 26.3 785.2 23.7C814.3 21 843.7 15 872.8 12.3C902 9.7 931 10.3 945.5 10.7L960 11L960 0L945.5 0C931 0 902 0 872.8 0C843.7 0 814.3 0 785.2 0C756 0 727 0 698 0C669 0 640 0 611 0C582 0 553 0 523.8 0C494.7 0 465.3 0 436.2 0C407 0 378 0 349 0C320 0 291 0 262 0C233 0 204 0 174.8 0C145.7 0 116.3 0 87.2 0C58 0 29 0 14.5 0L0 0Z" fill="#000000"></path><path d="M0 69L14.5 66.3C29 63.7 58 58.3 87.2 58C116.3 57.7 145.7 62.3 174.8 70.3C204 78.3 233 89.7 262 90.7C291 91.7 320 82.3 349 79.3C378 76.3 407 79.7 436.2 78C465.3 76.3 494.7 69.7 523.8 64.3C553 59 582 55 611 56C640 57 669 63 698 68C727 73 756 77 785.2 78C814.3 79 843.7 77 872.8 74.7C902 72.3 931 69.7 945.5 68.3L960 67L960 9L945.5 8.7C931 8.3 902 7.7 872.8 10.3C843.7 13 814.3 19 785.2 21.7C756 24.3 727 23.7 698 22.3C669 21 640 19 611 17.3C582 15.7 553 14.3 523.8 15.7C494.7 17 465.3 21 436.2 21.3C407 21.7 378 18.3 349 18C320 17.7 291 20.3 262 20.3C233 20.3 204 17.7 174.8 15.7C145.7 13.7 116.3 12.3 87.2 13.3C58 14.3 29 17.7 14.5 19.3L0 21Z" fill="#030308"></path><path d="M0 85L14.5 82.7C29 80.3 58 75.7 87.2 74C116.3 72.3 145.7 73.7 174.8 79.7C204 85.7 233 96.3 262 97C291 97.7 320 88.3 349 85.7C378 83 407 87 436.2 85.3C465.3 83.7 494.7 76.3 523.8 72C553 67.7 582 66.3 611 68.7C640 71 669 77 698 81C727 85 756 87 785.2 88.3C814.3 89.7 843.7 90.3 872.8 88C902 85.7 931 80.3 945.5 77.7L960 75L960 65L945.5 66.3C931 67.7 902 70.3 872.8 72.7C843.7 75 814.3 77 785.2 76C756 75 727 71 698 66C669 61 640 55 611 54C582 53 553 57 523.8 62.3C494.7 67.7 465.3 74.3 436.2 76C407 77.7 378 74.3 349 77.3C320 80.3 291 89.7 262 88.7C233 87.7 204 76.3 174.8 68.3C145.7 60.3 116.3 55.7 87.2 56C58 56.3 29 61.7 14.5 64.3L0 67Z" fill="#06060b"></path><path d="M0 103L14.5 99.3C29 95.7 58 88.3 87.2 85.3C116.3 82.3 145.7 83.7 174.8 89.3C204 95 233 105 262 107.3C291 109.7 320 104.3 349 101.7C378 99 407 99 436.2 97.3C465.3 95.7 494.7 92.3 523.8 88.7C553 85 582 81 611 82C640 83 669 89 698 94.3C727 99.7 756 104.3 785.2 106.7C814.3 109 843.7 109 872.8 105.7C902 102.3 931 95.7 945.5 92.3L960 89L960 73L945.5 75.7C931 78.3 902 83.7 872.8 86C843.7 88.3 814.3 87.7 785.2 86.3C756 85 727 83 698 79C669 75 640 69 611 66.7C582 64.3 553 65.7 523.8 70C494.7 74.3 465.3 81.7 436.2 83.3C407 85 378 81 349 83.7C320 86.3 291 95.7 262 95C233 94.3 204 83.7 174.8 77.7C145.7 71.7 116.3 70.3 87.2 72C58 73.7 29 78.3 14.5 80.7L0 83Z" fill="#09090e"></path><path d="M0 133L14.5 134.3C29 135.7 58 138.3 87.2 135.7C116.3 133 145.7 125 174.8 126.3C204 127.7 233 138.3 262 139.3C291 140.3 320 131.7 349 128C378 124.3 407 125.7 436.2 125.3C465.3 125 494.7 123 523.8 124.7C553 126.3 582 131.7 611 134.7C640 137.7 669 138.3 698 138C727 137.7 756 136.3 785.2 137.3C814.3 138.3 843.7 141.7 872.8 139.7C902 137.7 931 130.3 945.5 126.7L960 123L960 87L945.5 90.3C931 93.7 902 100.3 872.8 103.7C843.7 107 814.3 107 785.2 104.7C756 102.3 727 97.7 698 92.3C669 87 640 81 611 80C582 79 553 83 523.8 86.7C494.7 90.3 465.3 93.7 436.2 95.3C407 97 378 97 349 99.7C320 102.3 291 107.7 262 105.3C233 103 204 93 174.8 87.3C145.7 81.7 116.3 80.3 87.2 83.3C58 86.3 29 93.7 14.5 97.3L0 101Z" fill="#0b0b10"></path><path d="M0 155L14.5 155.3C29 155.7 58 156.3 87.2 156.7C116.3 157 145.7 157 174.8 158.7C204 160.3 233 163.7 262 165.3C291 167 320 167 349 165.7C378 164.3 407 161.7 436.2 159.3C465.3 157 494.7 155 523.8 156.7C553 158.3 582 163.7 611 167C640 170.3 669 171.7 698 171.3C727 171 756 169 785.2 167C814.3 165 843.7 163 872.8 162.3C902 161.7 931 162.3 945.5 162.7L960 163L960 121L945.5 124.7C931 128.3 902 135.7 872.8 137.7C843.7 139.7 814.3 136.3 785.2 135.3C756 134.3 727 135.7 698 136C669 136.3 640 135.7 611 132.7C582 129.7 553 124.3 523.8 122.7C494.7 121 465.3 123 436.2 123.3C407 123.7 378 122.3 349 126C320 129.7 291 138.3 262 137.3C233 136.3 204 125.7 174.8 124.3C145.7 123 116.3 131 87.2 133.7C58 136.3 29 133.7 14.5 132.3L0 131Z" fill="#0e0e12"></path><path d="M0 177L14.5 175.7C29 174.3 58 171.7 87.2 170C116.3 168.3 145.7 167.7 174.8 170C204 172.3 233 177.7 262 180C291 182.3 320 181.7 349 179.7C378 177.7 407 174.3 436.2 172.3C465.3 170.3 494.7 169.7 523.8 171.7C553 173.7 582 178.3 611 181C640 183.7 669 184.3 698 184C727 183.7 756 182.3 785.2 180.3C814.3 178.3 843.7 175.7 872.8 176.3C902 177 931 181 945.5 183L960 185L960 161L945.5 160.7C931 160.3 902 159.7 872.8 160.3C843.7 161 814.3 163 785.2 165C756 167 727 169 698 169.3C669 169.7 640 168.3 611 165C582 161.7 553 156.3 523.8 154.7C494.7 153 465.3 155 436.2 157.3C407 159.7 378 162.3 349 163.7C320 165 291 165 262 163.3C233 161.7 204 158.3 174.8 156.7C145.7 155 116.3 155 87.2 154.7C58 154.3 29 153.7 14.5 153.3L0 153Z" fill="#101014"></path><path d="M0 201L14.5 201C29 201 58 201 87.2 201C116.3 201 145.7 201 174.8 201C204 201 233 201 262 201C291 201 320 201 349 201C378 201 407 201 436.2 201C465.3 201 494.7 201 523.8 201C553 201 582 201 611 201C640 201 669 201 698 201C727 201 756 201 785.2 201C814.3 201 843.7 201 872.8 201C902 201 931 201 945.5 201L960 201L960 183L945.5 181C931 179 902 175 872.8 174.3C843.7 173.7 814.3 176.3 785.2 178.3C756 180.3 727 181.7 698 182C669 182.3 640 181.7 611 179C582 176.3 553 171.7 523.8 169.7C494.7 167.7 465.3 168.3 436.2 170.3C407 172.3 378 175.7 349 177.7C320 179.7 291 180.3 262 178C233 175.7 204 170.3 174.8 168C145.7 165.7 116.3 166.3 87.2 168C58 169.7 29 172.3 14.5 173.7L0 175Z" fill="#121216"></path></svg>