<svg id="Layer_1" data-name="Layer 1" xmlns="http://www.w3.org/2000/svg" xmlns:xlink="http://www.w3.org/1999/xlink" viewBox="0 0 194.42 35"><defs><style>.cls-1{fill:none;}.cls-2{clip-path:url(#clip-path);}.cls-3{fill:#ffb618;}.cls-4{fill:#1a1a1d;}.cls-5{fill:#fff;}</style><clipPath id="clip-path"><rect class="cls-1" width="194.42" height="35"/></clipPath></defs><title>logo-Impartner</title><g id="Artwork_20" data-name="Artwork 20"><g class="cls-2"><g class="cls-2"><path class="cls-3" d="M27.46,0H11.66A4.25,4.25,0,0,0,8.35,1.91L.45,15.59a4.28,4.28,0,0,0,0,3.82l7.9,13.68A4.25,4.25,0,0,0,11.66,35h15.8a4.25,4.25,0,0,0,3.31-1.91l7.9-13.68a4.28,4.28,0,0,0,0-3.82L30.77,1.91A4.25,4.25,0,0,0,27.46,0"/><rect class="cls-4" x="49.38" y="8.65" width="4.01" height="18.55" rx="0.27" ry="0.27"/><path class="cls-4" d="M57.61,8.92a.26.26,0,0,1,.28-.27h3.24a.42.42,0,0,1,.44.27l4.69,10.59h.11L71,8.92a.42.42,0,0,1,.44-.27h3.19a.26.26,0,0,1,.27.27v18a.26.26,0,0,1-.27.27H71.52a.26.26,0,0,1-.27-.27V16.48h-.11l-3.43,7.83a.53.53,0,0,1-.52.35H65.31a.52.52,0,0,1-.52-.35l-3.44-7.83h-.11V26.93a.26.26,0,0,1-.27.27H57.89a.26.26,0,0,1-.28-.27Z"/><path class="cls-4" d="M79.38,27.2a.26.26,0,0,1-.27-.27v-18a.26.26,0,0,1,.27-.27h7.2c4,0,6.46,2.43,6.46,6s-2.45,6-6.46,6h-3.3a.14.14,0,0,0-.16.16v6.2a.26.26,0,0,1-.28.27ZM89,14.62a2.42,2.42,0,0,0-2.7-2.5h-3a.14.14,0,0,0-.16.16v4.66c0,.11,0,.17.16.17h3A2.41,2.41,0,0,0,89,14.62"/><path class="cls-4" d="M99.43,8.92a.35.35,0,0,1,.35-.27h3.44a.35.35,0,0,1,.35.27l6.28,18c.05.16,0,.27-.2.27h-3.54a.34.34,0,0,1-.36-.27l-1.06-3.25H98.2l-1,3.25a.32.32,0,0,1-.35.27H93.23c-.19,0-.24-.11-.19-.27Zm4.17,11.35-2.1-6.49h-.08l-2.1,6.49Z"/><path class="cls-4" d="M122.94,27.2a.37.37,0,0,1-.41-.27l-3.19-6.8h-2.49a.15.15,0,0,0-.16.17v6.63a.26.26,0,0,1-.27.27H113a.26.26,0,0,1-.27-.27v-18a.26.26,0,0,1,.27-.27h7.4c3.79,0,6.3,2.37,6.3,5.76a5.44,5.44,0,0,1-3.3,5.15L127,26.87c.08.17,0,.33-.19.33Zm-.3-12.79a2.26,2.26,0,0,0-2.51-2.29h-3.28a.14.14,0,0,0-.16.16v4.28a.14.14,0,0,0,.16.16h3.28a2.26,2.26,0,0,0,2.51-2.31"/><path class="cls-4" d="M134.42,27.2a.26.26,0,0,1-.27-.27V12.39a.15.15,0,0,0-.17-.17h-4.69A.26.26,0,0,1,129,12v-3a.26.26,0,0,1,.27-.27H143a.26.26,0,0,1,.27.27v3a.26.26,0,0,1-.27.27h-4.69c-.11,0-.16.06-.16.17V26.93a.26.26,0,0,1-.28.27Z"/><path class="cls-4" d="M146.72,8.92a.26.26,0,0,1,.27-.27h1.75a.44.44,0,0,1,.46.27l8.4,13.92h.11V8.92a.26.26,0,0,1,.27-.27h1.72a.26.26,0,0,1,.28.27v18a.26.26,0,0,1-.28.27H158a.48.48,0,0,1-.47-.27l-8.42-13.86H149V26.93a.26.26,0,0,1-.27.27H147a.26.26,0,0,1-.27-.27Z"/><path class="cls-4" d="M165.24,8.92a.26.26,0,0,1,.27-.27h11.16a.26.26,0,0,1,.27.27v1.72a.26.26,0,0,1-.27.28h-8.84a.14.14,0,0,0-.16.16v5.45c0,.11.05.17.16.17h7.5a.26.26,0,0,1,.27.27v1.72a.26.26,0,0,1-.27.27h-7.5c-.11,0-.16.06-.16.17v5.64c0,.11.05.17.16.17h8.84a.25.25,0,0,1,.27.27v1.72a.26.26,0,0,1-.27.27H165.51a.26.26,0,0,1-.27-.27Z"/><path class="cls-4" d="M192,27.2c-.19,0-.27-.08-.35-.27L188,19.34h-4.09a.15.15,0,0,0-.17.17v7.42a.26.26,0,0,1-.27.27h-1.88a.26.26,0,0,1-.27-.27v-18a.26.26,0,0,1,.27-.27h6.71c3.46,0,5.81,2.13,5.81,5.35a5,5,0,0,1-3.66,5l4,7.83c.11.17,0,.33-.16.33ZM191.64,14c0-1.94-1.28-3.09-3.44-3.09h-4.33a.15.15,0,0,0-.17.17v5.84a.15.15,0,0,0,.17.16h4.33c2.16,0,3.44-1.15,3.44-3.08"/><polygon class="cls-5" points="25.05 13.12 25.05 8.16 22.16 8.16 17.2 8.16 14.31 8.16 14.31 13.12 17.2 13.12 17.2 21.8 14.31 21.8 14.31 26.77 17.2 26.77 22.16 26.77 25.05 26.77 25.05 21.8 22.16 21.8 22.16 13.12 25.05 13.12"/></g></g></g></svg>