<?xml version="1.0" standalone="no"?>
<!DOCTYPE svg PUBLIC "-//W3C//DTD SVG 20010904//EN"
 "http://www.w3.org/TR/2001/REC-SVG-20010904/DTD/svg10.dtd">
<svg version="1.0" xmlns="http://www.w3.org/2000/svg"
 width="1333.000000pt" height="330.000000pt" viewBox="0 0 1333.000000 330.000000"
 preserveAspectRatio="xMidYMid meet">

<g transform="translate(0.000000,330.000000) scale(0.100000,-0.100000)"
fill="#000000" stroke="none">
<path d="M19 3253 c10 -27 209 -558 442 -1180 l424 -1133 231 0 c212 0 232 2
239 17 30 79 875 2334 875 2338 0 3 -118 5 -262 5 l-263 0 -98 -283 c-247
-706 -479 -1363 -486 -1369 -3 -4 -25 48 -48 115 -23 67 -150 439 -282 826
-133 387 -241 706 -241 708 0 2 -124 3 -275 3 l-275 0 19 -47z"/>
<path d="M3465 2455 c-126 -17 -205 -40 -320 -95 -177 -83 -284 -198 -340
-365 -70 -209 -26 -494 100 -645 134 -160 299 -227 775 -315 188 -35 275 -59
327 -91 90 -56 136 -135 135 -235 0 -117 -52 -200 -157 -252 -143 -72 -435
-61 -575 20 -93 54 -162 167 -176 288 l-7 55 -248 0 -249 0 0 -32 c0 -18 6
-69 14 -113 49 -275 177 -452 411 -565 185 -89 334 -114 627 -108 178 5 215 9
303 32 148 39 269 103 363 191 121 114 180 233 201 403 18 140 -11 327 -66
437 -48 95 -157 196 -275 256 -134 68 -237 97 -568 164 -118 24 -242 53 -275
65 -128 44 -184 112 -193 229 -6 83 9 131 54 181 108 119 450 147 634 52 84
-44 146 -136 180 -270 9 -36 14 -41 33 -37 12 2 114 16 227 30 112 15 206 28
209 30 6 7 -18 124 -41 195 -91 286 -321 455 -681 500 -107 13 -309 11 -422
-5z"/>
<path d="M6880 1230 l0 -1180 230 0 229 0 3 563 3 562 28 57 c36 73 102 139
174 175 48 23 73 28 153 31 88 3 99 1 150 -25 57 -29 91 -69 112 -132 9 -26
13 -201 15 -633 l4 -598 230 0 229 0 0 578 c0 321 -5 625 -10 686 -32 334
-188 491 -510 512 -206 14 -373 -49 -517 -196 l-63 -64 0 422 0 422 -230 0
-230 0 0 -1180z"/>
<path d="M12870 1230 l0 -1180 230 0 230 0 0 1180 0 1180 -230 0 -230 0 0
-1180z"/>
<path d="M5645 1820 c-215 -32 -398 -134 -514 -287 -135 -178 -204 -436 -187
-702 29 -448 221 -713 581 -803 120 -29 358 -32 485 -5 100 22 228 79 288 130
129 109 219 287 246 490 l5 37 -234 0 -233 0 -7 -42 c-20 -118 -77 -201 -164
-242 -36 -16 -66 -21 -136 -21 -78 0 -97 4 -147 28 -94 46 -148 125 -185 272
-25 100 -25 393 1 485 39 143 102 231 195 274 66 30 218 30 276 0 22 -12 48
-30 57 -40 26 -30 64 -114 78 -171 8 -34 17 -53 26 -53 15 0 351 45 412 56
l33 5 -7 47 c-8 63 -50 187 -82 242 -114 202 -348 313 -650 309 -48 -1 -109
-5 -137 -9z"/>
<path d="M9480 1819 c-94 -14 -235 -64 -313 -110 -134 -80 -256 -220 -314
-361 -112 -277 -103 -668 22 -923 99 -203 259 -330 494 -392 84 -23 117 -26
261 -26 239 -1 364 32 527 139 156 103 264 262 321 472 23 89 26 114 26 297 1
178 -2 210 -22 290 -81 313 -280 516 -584 595 -96 25 -313 35 -418 19z m323
-387 c132 -58 206 -193 227 -411 25 -261 -39 -488 -164 -582 -65 -49 -121 -64
-236 -64 -80 1 -104 5 -151 27 -126 58 -193 176 -220 384 -14 112 -7 270 16
359 46 175 135 277 268 305 67 14 210 4 260 -18z"/>
<path d="M11480 1819 c-95 -15 -235 -64 -315 -111 -38 -23 -104 -75 -146 -117
-80 -81 -129 -155 -172 -263 -106 -265 -94 -654 28 -903 99 -203 259 -330 494
-393 85 -22 116 -25 266 -25 152 0 180 2 266 25 270 73 459 245 552 503 65
183 76 488 24 687 -79 300 -279 500 -579 578 -96 25 -313 35 -418 19z m323
-387 c133 -59 208 -196 227 -415 23 -263 -40 -484 -164 -578 -65 -49 -121 -64
-237 -63 -111 1 -180 26 -242 88 -94 94 -147 298 -134 515 8 126 22 191 62
277 49 108 125 172 228 194 67 14 210 4 260 -18z"/>
<path d="M440 260 l0 -230 675 0 675 0 0 230 0 230 -675 0 -675 0 0 -230z"/>
</g>
</svg>
